<svg id="Layer_1" data-name="Layer 1" xmlns="http://www.w3.org/2000/svg" viewBox="0 0 330.35 90.83"><defs><style>.cls-1{fill:#fff;}</style></defs><title>FlatPig-all-white</title><path class="cls-1" d="M111.47,44.47H90.24v21.4H77.63V13.67h38.28V24.55H90.24v10h21.23Z"/><path class="cls-1" d="M122.2,13.24h12.53V65.88H122.2Z"/><path class="cls-1" d="M176.07,65.88h-8.53l-1.74-4.44h-.35c-1.83,3.13-5.39,5.31-11.48,5.31-8.18,0-13.05-4.87-13.05-11.49,0-7.65,5.48-12.09,16.62-12.09a25.64,25.64,0,0,1,6.52.78V42.82c0-3.57-3-4.61-7.92-4.61A19.8,19.8,0,0,0,147,40.64l-3.83-8.87s5.31-3.31,15.66-3.31c11,0,17.23,6,17.23,14.88Zm-12-15.57a12.87,12.87,0,0,0-5-.78c-4.09,0-6.52,1.74-6.52,4.7,0,2.7,2.17,4.35,5,4.35,3.48,0,6.44-2.17,6.44-5.57Z"/><path class="cls-1" d="M186.79,29.33V18.2h12.53V29.33h0a8.18,8.18,0,0,1,8.18,8.18V39h-8.18V52.83c0,2,1,3.22,3.3,3.22a5.92,5.92,0,0,0,3.22-1l3.39,8.53a17.87,17.87,0,0,1-10.09,3.22c-9,0-12.36-5.75-12.36-13.31V39h-6V29.33Z"/><path class="cls-1" d="M258.75,31.25c0,10.7-8.09,17.49-20.1,17.49H228.21V65.88H215.6V13.67h23.06C250.58,13.67,258.75,21.07,258.75,31.25Zm-21-6.7h-9.57V38h9.66c4.44,0,7.83-2.35,7.83-6.79S242.4,24.55,237.78,24.55Z"/><path class="cls-1" d="M263.65,17.85a6.77,6.77,0,0,1,7-6.88,6.91,6.91,0,0,1,7.22,6.88c0,4-3.22,6.78-7.22,6.78A6.7,6.7,0,0,1,263.65,17.85Zm.7,11.48h12.53V65.88H264.35Z"/><path class="cls-1" d="M39.7,38.06c-6.8,0-12.33,4.2-12.33,9.36s5.53,9.36,12.33,9.36S52,52.58,52,47.42,46.49,38.06,39.7,38.06Zm0,16.67c-5.67,0-10.28-3.28-10.28-7.31S34,40.11,39.7,40.11,50,43.39,50,47.42,45.36,54.73,39.7,54.73Z"/><path class="cls-1" d="M45.71,32.91a3.31,3.31,0,1,0-3.31-3.31A3.31,3.31,0,0,0,45.71,32.91Zm0-4.57a1.26,1.26,0,1,1-1.26,1.26A1.26,1.26,0,0,1,45.71,28.35Z"/><path class="cls-1" d="M33.25,32.91a3.31,3.31,0,1,0-3.31-3.31A3.31,3.31,0,0,0,33.25,32.91Zm0-4.57A1.26,1.26,0,1,1,32,29.61,1.26,1.26,0,0,1,33.25,28.35Z"/><path class="cls-1" d="M42.49,42.95a2.62,2.62,0,0,0-1.54,2.17,6.17,6.17,0,0,0,2,5.27,2.93,2.93,0,0,0,1.83.72,2.14,2.14,0,0,0,.77-.14,2.62,2.62,0,0,0,1.54-2.17,5.77,5.77,0,0,0-.37-2.88C45.86,43.64,44,42.35,42.49,42.95Zm2.6,5.54c-.06.37-.19.55-.25.57s-.27,0-.57-.26A4.15,4.15,0,0,1,43,45.43c.06-.38.2-.55.25-.57h0c.27,0,1.06.52,1.56,1.81A3.77,3.77,0,0,1,45.09,48.49Z"/><path class="cls-1" d="M37.07,42.95c-1.55-.6-3.37.69-4.25,3a5.77,5.77,0,0,0-.37,2.88A2.62,2.62,0,0,0,34,51a2.14,2.14,0,0,0,.77.14,2.93,2.93,0,0,0,1.83-.72,6.17,6.17,0,0,0,2-5.27A2.62,2.62,0,0,0,37.07,42.95Zm-.74,4.32a3.76,3.76,0,0,1-1,1.54c-.3.25-.52.28-.57.26s-.19-.2-.25-.57a3.77,3.77,0,0,1,.26-1.84c.53-1.38,1.4-1.88,1.61-1.8s.19.19.25.57A3.76,3.76,0,0,1,36.33,47.27Z"/><path class="cls-1" d="M65.34,24.73l2.6-8.41a2,2,0,0,0-.36-1.88,2.07,2.07,0,0,0-1.76-.76l-7.67.64a4.09,4.09,0,0,0-2.63,1.26l-3.65,3.84c-4.39-3-10.17-3.26-12.17-3.22-1.43,0-7.49.12-12.08,3.17L24,15.57a4.09,4.09,0,0,0-2.63-1.26l-7.67-.63a2,2,0,0,0-2.12,2.64l2.6,8.41a3.05,3.05,0,0,0,2.46,2.13,21.32,21.32,0,0,1,5.85,1.57,16.29,16.29,0,0,1-2,6.21,9.8,9.8,0,0,1-1.13,1.29C17.29,38,13.84,41.6,13.84,51.55c0,4.64,3,8.46,8.78,11.06a43.07,43.07,0,0,0,17.06,3.27h0a43.5,43.5,0,0,0,16.62-3.26c6-2.65,9.22-6.47,9.22-11.06,0-10-3.45-13.5-5.51-15.62a9.81,9.81,0,0,1-1.13-1.29,16.09,16.09,0,0,1-2-6.13,20.1,20.1,0,0,1,6-1.66A3.05,3.05,0,0,0,65.34,24.73Zm-49.16-.6-2.6-8.41,7.67.64a2,2,0,0,1,1.31.63L26,20.61a11.41,11.41,0,0,0-1.57,1.75,10.35,10.35,0,0,0-1.53,4A26.39,26.39,0,0,0,17,24.83,1,1,0,0,1,16.18,24.13ZM58.57,37.35c2,2,4.93,5.08,4.93,14.2,0,4.69-4.35,7.59-8,9.19a41.34,41.34,0,0,1-15.8,3.09h0a41,41,0,0,1-16.22-3.09c-3.46-1.56-7.58-4.43-7.58-9.19,0-9.12,3-12.18,4.93-14.2a11,11,0,0,0,1.38-1.6,18.93,18.93,0,0,0,2.41-7.31,12.28,12.28,0,0,1,1.5-4.88c3.69-5.17,11.95-5.36,13.59-5.33,2.28,0,10,.3,13.57,5.33a12.28,12.28,0,0,1,1.5,4.88,18.93,18.93,0,0,0,2.41,7.31A11,11,0,0,0,58.57,37.35ZM56.49,26.43a10.48,10.48,0,0,0-1.54-4.06,11.64,11.64,0,0,0-1.47-1.67L57,17a2,2,0,0,1,1.31-.63L66,15.72l-2.6,8.41a1,1,0,0,1-.82.71A25.6,25.6,0,0,0,56.49,26.43Z"/><path class="cls-1" d="M301.77,57.7c-6.7-.26-7.31-1.13-7.31-2.26,0-.87.26-1.39,1.57-2.17a30.18,30.18,0,0,0,5,.44c11,0,16.18-5.39,16.18-11.57,0-2.61-.69-3.39-.69-3.39v-.17H321a9.22,9.22,0,0,0-9.22-9.22H307a24.48,24.48,0,0,0-5.92-.7c-9.83,0-16.27,5.13-16.27,12.88A10.47,10.47,0,0,0,289,50c-3.74,2.17-5.31,4.7-5.31,7.13a7.72,7.72,0,0,0,4.18,7.22,54.06,54.06,0,0,0,9,2.44c1.48.17,3.13.26,5,.35,6.18.18,7,1.57,7,3.48s-2.26,3.3-7.4,3.3c-5,0-6.79-1.3-6.79-3.3,0-.75.39-2,2.35-3.09,0,0-8-1.39-9.92-2.56-.55-.35-3.87,2.26-4.35,7.3-.51,5.46,5.22,9.22,18.71,9.22s19.75-6,19.75-12.7C321.17,61.26,316.3,58.31,301.77,57.7Zm-.69-21.32a4.63,4.63,0,0,1,5,4.87,4.87,4.87,0,0,1-9.74,0A4.59,4.59,0,0,1,301.08,36.38Z"/></svg>