<svg id="Layer_1" data-name="Layer 1" xmlns="http://www.w3.org/2000/svg" viewBox="0 0 330.35 90.83"><defs><style>.cls-1{fill:#fff;}.cls-2{fill:#ff454a;}</style></defs><title>flatpigwhite</title><path class="cls-1" d="M111.47,41.47H90.24v21.4H77.63V10.67h38.28V21.55H90.24v10h21.23Z"/><path class="cls-1" d="M122.2,10.24h12.53V62.88H122.2Z"/><path class="cls-1" d="M176.07,62.88h-8.53l-1.74-4.44h-.35c-1.83,3.13-5.39,5.31-11.48,5.31-8.18,0-13.05-4.87-13.05-11.49,0-7.65,5.48-12.09,16.62-12.09a25.64,25.64,0,0,1,6.52.78V39.82c0-3.57-3-4.61-7.92-4.61A19.8,19.8,0,0,0,147,37.64l-3.83-8.87s5.31-3.31,15.66-3.31c11,0,17.23,6,17.23,14.88Zm-12-15.57a12.87,12.87,0,0,0-5-.78c-4.09,0-6.52,1.74-6.52,4.7,0,2.7,2.17,4.35,5,4.35,3.48,0,6.44-2.17,6.44-5.57Z"/><path class="cls-1" d="M186.79,26.33V15.2h12.53V26.33h0a8.18,8.18,0,0,1,8.18,8.18V36h-8.18V49.83c0,2,1,3.22,3.3,3.22a5.92,5.92,0,0,0,3.22-1l3.39,8.53a17.87,17.87,0,0,1-10.09,3.22c-9,0-12.36-5.75-12.36-13.31V36h-6V26.33Z"/><path class="cls-1" d="M258.75,28.25c0,10.7-8.09,17.49-20.1,17.49H228.21V62.88H215.6V10.67h23.06C250.58,10.67,258.75,18.07,258.75,28.25Zm-21-6.7h-9.57V35h9.66c4.44,0,7.83-2.35,7.83-6.79S242.4,21.55,237.78,21.55Z"/><path class="cls-1" d="M263.65,14.85a6.77,6.77,0,0,1,7-6.88,6.91,6.91,0,0,1,7.22,6.88c0,4-3.22,6.78-7.22,6.78A6.7,6.7,0,0,1,263.65,14.85Zm.7,11.48h12.53V62.88H264.35Z"/><rect class="cls-2" x="7.67" y="10.67" width="52.22" height="52.22" rx="3" ry="3"/><path class="cls-1" d="M33.73,36.73c-4,0-7.2,2.45-7.2,5.47s3.23,5.47,7.2,5.47,7.2-2.45,7.2-5.47S37.7,36.73,33.73,36.73Zm0,9.74c-3.31,0-6-1.92-6-4.27s2.7-4.27,6-4.27,6,1.92,6,4.27S37,46.48,33.73,46.48Z"/><path class="cls-1" d="M37.25,33.72a1.93,1.93,0,1,0-1.93-1.93A1.93,1.93,0,0,0,37.25,33.72Zm0-2.67a.74.74,0,1,1-.74.74A.74.74,0,0,1,37.25,31.05Z"/><path class="cls-1" d="M30,33.72A1.93,1.93,0,1,0,28,31.79,1.93,1.93,0,0,0,30,33.72Zm0-2.67a.74.74,0,1,1-.74.74A.74.74,0,0,1,30,31.05Z"/><path class="cls-1" d="M35.36,39.59a1.53,1.53,0,0,0-.9,1.27,3.6,3.6,0,0,0,1.18,3.08,1.71,1.71,0,0,0,1.07.42,1.25,1.25,0,0,0,.45-.08,1.53,1.53,0,0,0,.9-1.27,3.37,3.37,0,0,0-.22-1.69C37.33,40,36.27,39.24,35.36,39.59Zm1.52,3.24c0,.22-.11.32-.15.34s-.16,0-.33-.15a2.43,2.43,0,0,1-.76-2c0-.22.11-.32.15-.34h0c.16,0,.62.3.91,1.06A2.2,2.2,0,0,1,36.88,42.83Z"/><path class="cls-1" d="M32.2,39.59c-.9-.35-2,.4-2.48,1.74A3.37,3.37,0,0,0,29.5,43a1.53,1.53,0,0,0,.9,1.27,1.25,1.25,0,0,0,.45.08,1.71,1.71,0,0,0,1.07-.42,3.6,3.6,0,0,0,1.18-3.08A1.53,1.53,0,0,0,32.2,39.59Zm-.43,2.52a2.2,2.2,0,0,1-.6.9c-.18.14-.3.16-.33.15s-.11-.12-.15-.34a2.2,2.2,0,0,1,.15-1.07c.31-.81.82-1.1.94-1.05s.11.11.15.34A2.2,2.2,0,0,1,31.76,42.11Z"/><path class="cls-1" d="M48.72,28.94,50.24,24a1.19,1.19,0,0,0-.21-1.1,1.21,1.21,0,0,0-1-.44l-4.48.37a2.39,2.39,0,0,0-1.53.73l-2.13,2.24a13.1,13.1,0,0,0-7.11-1.88,13.55,13.55,0,0,0-7.06,1.85l-2.1-2.21A2.39,2.39,0,0,0,23,22.85l-4.48-.37A1.19,1.19,0,0,0,17.32,24l1.52,4.92a1.78,1.78,0,0,0,1.44,1.24,12.46,12.46,0,0,1,3.42.92,9.52,9.52,0,0,1-1.2,3.63,5.73,5.73,0,0,1-.66.75c-1.2,1.24-3.22,3.31-3.22,9.13,0,2.71,1.77,4.94,5.13,6.46a25.17,25.17,0,0,0,10,1.91h0a25.42,25.42,0,0,0,9.71-1.91c3.53-1.55,5.39-3.78,5.39-6.47,0-5.82-2-7.89-3.22-9.13a5.73,5.73,0,0,1-.66-.75,9.4,9.4,0,0,1-1.19-3.58,11.75,11.75,0,0,1,3.51-1A1.78,1.78,0,0,0,48.72,28.94ZM20,28.59l-1.52-4.92,4.48.37a1.19,1.19,0,0,1,.77.37l2,2.12a6.67,6.67,0,0,0-.92,1,6.05,6.05,0,0,0-.89,2.33A15.43,15.43,0,0,0,20.46,29,.59.59,0,0,1,20,28.59Zm24.78,7.73c1.15,1.18,2.88,3,2.88,8.3,0,2.74-2.54,4.43-4.68,5.37a24.17,24.17,0,0,1-9.23,1.81h0A24,24,0,0,1,24.24,50c-2-.91-4.43-2.59-4.43-5.37,0-5.33,1.73-7.12,2.88-8.3a6.44,6.44,0,0,0,.81-.94,11.07,11.07,0,0,0,1.41-4.27,7.18,7.18,0,0,1,.88-2.85c2.16-3,7-3.13,7.95-3.11,1.33,0,5.83.17,7.93,3.11a7.18,7.18,0,0,1,.88,2.85A11.07,11.07,0,0,0,44,35.38,6.44,6.44,0,0,0,44.76,36.32Zm-1.22-6.39a6.12,6.12,0,0,0-.9-2.37,6.8,6.8,0,0,0-.86-1l2.07-2.17a1.19,1.19,0,0,1,.77-.37l4.48-.37-1.52,4.92a.59.59,0,0,1-.48.41A15,15,0,0,0,43.55,29.93Z"/><path class="cls-1" d="M301.77,54.7c-6.7-.26-7.31-1.13-7.31-2.26,0-.87.26-1.39,1.57-2.17a30.18,30.18,0,0,0,5,.44c11,0,16.18-5.39,16.18-11.57,0-2.61-.69-3.39-.69-3.39v-.17H321a9.22,9.22,0,0,0-9.22-9.22H307a24.48,24.48,0,0,0-5.92-.7c-9.83,0-16.27,5.13-16.27,12.88A10.47,10.47,0,0,0,289,47c-3.74,2.17-5.31,4.7-5.31,7.13a7.72,7.72,0,0,0,4.18,7.22,54.06,54.06,0,0,0,9,2.44c1.48.17,3.13.26,5,.35,6.18.18,7,1.57,7,3.48s-2.26,3.3-7.4,3.3c-5,0-6.79-1.3-6.79-3.3,0-.75.39-2,2.35-3.09,0,0-8-1.39-9.92-2.56-.55-.35-3.87,2.26-4.35,7.3-.51,5.46,5.22,9.22,18.71,9.22s19.75-6,19.75-12.7C321.17,58.26,316.3,55.31,301.77,54.7Zm-.69-21.32a4.63,4.63,0,0,1,5,4.87,4.87,4.87,0,0,1-9.74,0A4.59,4.59,0,0,1,301.08,33.38Z"/></svg>