<svg id="Layer_1" data-name="Layer 1" xmlns="http://www.w3.org/2000/svg" viewBox="0 0 300 300"><defs><style>.cls-1{fill:#ff454a;}</style></defs><title>jambo-s</title><path class="cls-1" d="M159.77,90.46h-19.4V73.11h19.4Zm-16.13-3.28h12.85V76.38H143.64Z"/><path class="cls-1" d="M155.21,76.38H144.43V63.54a4.26,4.26,0,0,1,4.26-4.26H151a4.26,4.26,0,0,1,4.26,4.26Zm-7.51-3.28h4.24V63.54a1,1,0,0,0-1-1h-2.27a1,1,0,0,0-1,1Z"/><path class="cls-1" d="M143.64,85.45H119.55v-8.2h24.09Zm-20.81-3.28h17.54V80.53H122.83Z"/><path class="cls-1" d="M155.46,102.7H144.67V87.18h10.79Zm-7.51-3.28h4.24v-9h-4.24Z"/><path class="cls-1" d="M182.76,213H117.24a9.06,9.06,0,0,1-9-9V103.68a4.26,4.26,0,0,1,4.26-4.26h75.09a4.26,4.26,0,0,1,4.26,4.26V203.94A9.06,9.06,0,0,1,182.76,213ZM112.45,102.7a1,1,0,0,0-1,1V203.94a5.78,5.78,0,0,0,5.77,5.77h65.51a5.78,5.78,0,0,0,5.77-5.77V103.68a1,1,0,0,0-1-1Z"/><path class="cls-1" d="M173.79,195.57H126.21a7,7,0,0,1-7-7V109.72h61.62v78.83A7,7,0,0,1,173.79,195.57ZM122.46,113v75.55a3.75,3.75,0,0,0,3.74,3.74h47.59a3.75,3.75,0,0,0,3.74-3.74V113Z"/><path class="cls-1" d="M153.27,230.32h-4.89a3,3,0,0,1-2.95-2.95V209.71h10.79v17.67A3,3,0,0,1,153.27,230.32ZM148.71,227h4.24V213h-4.24Z"/><path class="cls-1" d="M159.4,195.57H142.25V188.4a2.89,2.89,0,0,1,2.89-2.89h11.37a2.89,2.89,0,0,1,2.89,2.89Zm-13.87-3.28h10.6v-3.51h-10.6Z"/></svg>