<svg id="Layer_1" data-name="Layer 1" xmlns="http://www.w3.org/2000/svg" viewBox="0 0 300 300"><defs><style>.cls-1{fill:#ff454a;}</style></defs><title>jambo-s</title><path class="cls-1" d="M174,227.39a5.78,5.78,0,0,1-.62,0,8.55,8.55,0,0,1-3.44-1.07c-10.25-6.2-22-10.34-36.06-12.65-4.46-.73-9-1.31-13.47-1.87-2.26-.29-4.51-.57-6.76-.88a4.61,4.61,0,0,1-1.91-.66c-9.76-6.35-15.61-15-17.38-25.57a52,52,0,0,1,1-20.31,84.62,84.62,0,0,1,6.83-18.84c1-2,.15-2.89-.7-3.42a2,2,0,0,0-1.4-.36,1.38,1.38,0,0,0-.82.68,46.54,46.54,0,0,0-3,5.81,78.73,78.73,0,0,0-6.43,23.56c-.11,1-.16,2-.22,3.11,0,.49-.05,1-.08,1.47a47.11,47.11,0,0,0,4.89,21.88,11.75,11.75,0,0,1,1,4.54,4.41,4.41,0,0,1-5.32,4.36c-4.35-1.05-9.87-2.86-14.1-7.51A24,24,0,0,1,70,185.53c-1-8.78.47-17.67,4.6-28.82,1.71-4.61,4.6-8.53,7.38-12.32l.49-.67A113.27,113.27,0,0,1,99.14,125.6a9.18,9.18,0,0,1,6.09-2.33h0a6.11,6.11,0,0,1,5.54,3.45c1.86,3.38,4.77,5.89,9.15,7.89a26.27,26.27,0,0,0,8.71,2.31,14.68,14.68,0,0,1,9.26,4.14c3.13,3.08,3.59,7,3.67,9.63.37,12.68,4.15,23.93,11.25,33.45a41.59,41.59,0,0,0,14.67,12.39,3.81,3.81,0,0,1,1.71,1.44h0c4.7,8.38,7.56,15.54,9,22.55a9.38,9.38,0,0,1,.11,2.66,4.61,4.61,0,0,1-1.57,3.28A4.28,4.28,0,0,1,174,227.39ZM100.3,138.51a5.34,5.34,0,0,1,2.82.88c2.68,1.67,3.38,4.49,1.86,7.53A81.42,81.42,0,0,0,98.41,165a48.87,48.87,0,0,0-1,19.08c1.64,9.84,6.87,17.51,16,23.43a1.64,1.64,0,0,0,.6.17c2.24.3,4.49.59,6.73.87,4.46.56,9.07,1.15,13.59,1.89,14.42,2.37,26.59,6.65,37.19,13.06a5.34,5.34,0,0,0,2.13.63,1.45,1.45,0,0,0,1-.2,1.59,1.59,0,0,0,.43-1.09,6.34,6.34,0,0,0-.05-1.76c-1.36-6.66-4.1-13.51-8.61-21.56a2.89,2.89,0,0,0-.41-.24A44.74,44.74,0,0,1,150.29,186c-7.5-10.05-11.5-21.91-11.88-35.25-.1-3.39-.94-5.69-2.73-7.45a11.58,11.58,0,0,0-7.32-3.24,29.4,29.4,0,0,1-9.75-2.58c-5-2.27-8.43-5.29-10.61-9.24a3,3,0,0,0-2.75-1.81h0a6,6,0,0,0-4,1.54,110.09,110.09,0,0,0-16.15,17.63l-.49.67c-2.66,3.61-5.4,7.34-7,11.54-4,10.66-5.32,19.1-4.42,27.37a21,21,0,0,0,5.14,12.28c2.84,3.13,6.69,5.16,12.49,6.56a1.11,1.11,0,0,0,.94-.27,1.14,1.14,0,0,0,.46-.89,8.55,8.55,0,0,0-.71-3.28,50.89,50.89,0,0,1-5.2-23.36v-.06c0-.49.06-1,.08-1.46.06-1.07.11-2.17.23-3.28a81.9,81.9,0,0,1,6.68-24.51,49.68,49.68,0,0,1,3.2-6.2,4.49,4.49,0,0,1,2.8-2.1A4.33,4.33,0,0,1,100.3,138.51Zm66.14,61h0Z"/><path class="cls-1" d="M177.88,195.13a16.24,16.24,0,0,1-6.92-1.66c-11.69-5.49-19.32-15.25-23.34-29.85a55.57,55.57,0,0,1-1.83-13.29c-.27-9.47-5.85-15.82-15.32-17.45-.65-.11-1.32-.19-2-.28A16.7,16.7,0,0,1,122.2,131l-.75-.4a29.22,29.22,0,0,1-4.21-2.57,8.56,8.56,0,0,1-3.09-9.58,9,9,0,0,1,5.37-6.55,60.85,60.85,0,0,1,26.39-5.53c10.39.28,20.44,3.22,30.71,9a85.23,85.23,0,0,1,14.45,10.19c.21.18.4.37.61.58l1.22,1.16-.7,1.1a25.84,25.84,0,0,0-3.8,11.26A44,44,0,0,0,189.51,155a6.5,6.5,0,0,1,0,3.58c-.64,2.09-.09,4.12.76,6.76h0c.28.88.58,1.76.89,2.63a63,63,0,0,1,2,6.78c1.84,8.32-4.2,16.46-9.08,18.91A13.74,13.74,0,0,1,177.88,195.13Zm-33.45-85.62a58.4,58.4,0,0,0-23.62,5.29,5.87,5.87,0,0,0-3.57,4.46c-.71,2.68-.09,4.67,2,6.26a26.41,26.41,0,0,0,3.76,2.28l.76.41a14.09,14.09,0,0,0,5.11,1.25c.71.09,1.44.17,2.17.3,10.94,1.87,17.65,9.53,18,20.49a52.43,52.43,0,0,0,1.72,12.53c3.76,13.65,10.84,22.75,21.63,27.82,3.74,1.75,7.13,1.82,10.37.19,4-2,8.82-9,7.4-15.38a59.42,59.42,0,0,0-1.95-6.44c-.31-.89-.61-1.79-.9-2.69h0c-.78-2.43-1.76-5.46-.78-8.67a3.26,3.26,0,0,0,0-1.89,47.17,47.17,0,0,1-1.16-16.46,29.29,29.29,0,0,1,3.59-11.48,82.08,82.08,0,0,0-13.77-9.69c-9.81-5.49-19.37-8.29-29.24-8.56Zm22.13,34h0a9,9,0,0,1-8.86-9.06,9,9,0,0,1,8.9-8.88h0a9,9,0,0,1,6.43,2.66,9,9,0,0,1,0,12.65A9.07,9.07,0,0,1,166.56,143.54Zm0-14.76a5.87,5.87,0,0,0-5.72,5.74,5.73,5.73,0,0,0,1.67,4.12,5.64,5.64,0,0,0,4,1.72h0a5.92,5.92,0,0,0,4.22-1.7,5.79,5.79,0,0,0,0-8.16,5.88,5.88,0,0,0-4.19-1.73Z"/><path class="cls-1" d="M191.17,119.24a3.38,3.38,0,0,1-2-.81,80.92,80.92,0,0,0-27.91-14,66.44,66.44,0,0,0-17.13-2.28,61.25,61.25,0,0,0-21.47,4h0a2.77,2.77,0,0,1-3.76-1.33c-3-5.08-6-10.56-7.23-16.82a21.7,21.7,0,0,1-.2-5.92A7.22,7.22,0,0,1,115.88,76a22.66,22.66,0,0,1,11.48-2,5.27,5.27,0,0,1,4.56,3.27c.17.37.32.75.48,1.13s.32.76.49,1.13c1.08,2.39,3.3,5.05,7.72,4.15A50.69,50.69,0,0,0,146.36,82c.93-.31,1.87-.62,2.81-.91l1.21-.37c1.73-.53,3.51-1.08,5.3-1.56.67-.18,2.92-.56,3.9,2.29A28.69,28.69,0,0,0,161.45,86a6.76,6.76,0,0,0,6,3.57,25.13,25.13,0,0,0,7.66-1.06,18.73,18.73,0,0,1,3.71-.56c2.37-.1,3.7,1,4,3.34.16,1.36.21,2.72.26,4,0,.45,0,.91.05,1.36,0,.61,0,1.23.06,1.85,0,1.16,0,2.25.17,3.33a5.54,5.54,0,0,0,2.15,4.12,5.86,5.86,0,0,0,4.87.52,16.21,16.21,0,0,1,5.35-.64,4.67,4.67,0,0,1,3.76,2.27,4.94,4.94,0,0,1,0,4.64c-1.65,3.38-4.69,5-7.42,6.32A1.86,1.86,0,0,1,191.17,119.24ZM144.17,99a69.62,69.62,0,0,1,18,2.39,84,84,0,0,1,29,14.55l0,0c2.56-1.25,4.36-2.51,5.38-4.58a1.84,1.84,0,0,0,.11-1.68,1.56,1.56,0,0,0-1.27-.67,13.27,13.27,0,0,0-4.27.55,8.91,8.91,0,0,1-7.47-1,8.6,8.6,0,0,1-3.51-6.37c-.14-1.23-.17-2.45-.19-3.63,0-.59,0-1.18-.05-1.77s0-.93-.06-1.39c0-1.31-.09-2.55-.24-3.79a2.32,2.32,0,0,0-.1-.5,2.45,2.45,0,0,0-.57,0,15.55,15.55,0,0,0-3.08.46,28,28,0,0,1-8.63,1.15,10,10,0,0,1-8.54-5.21,31.31,31.31,0,0,1-2.1-5,2.19,2.19,0,0,0-.1-.25c-1.72.47-3.47,1-5.17,1.53l-1.22.37c-.91.28-1.82.58-2.73.88a53.92,53.92,0,0,1-6.11,1.77c-5,1-9.07-1.14-11.25-5.95-.18-.4-.35-.81-.52-1.21s-.3-.71-.45-1.06a2.11,2.11,0,0,0-1.9-1.4,19.52,19.52,0,0,0-9.89,1.7,4.06,4.06,0,0,0-2.58,3.44,18.68,18.68,0,0,0,.15,5.06c1.11,5.74,4,10.93,6.82,15.76A64.42,64.42,0,0,1,144.17,99Z"/><path class="cls-1" d="M221.22,152.92l-1.28-.87c-9.24-6.33-14.64-4.67-19.87-3.07a23.05,23.05,0,0,1-8.24,1.44l-2.24-.13.87-2.07a24.61,24.61,0,0,0,.71-3.8c.7-4.79,1.66-11.35,5.16-14.36a3.92,3.92,0,0,1,2.72-.69h0a28.47,28.47,0,0,1,14.7,6.48,12.74,12.74,0,0,1,2.76,3.45,11.26,11.26,0,0,0,1.88,2.52l1,1-.3.42c.35.77.94,2,1.4,3,2.21,4.68,2.21,4.68,1.62,5.49Zm-22.94-20.36c-2.51,2.32-3.39,8.32-4,12.31-.13.87-.24,1.64-.36,2.31a28.41,28.41,0,0,0,5.18-1.25c4.82-1.48,10.19-3.12,18.13.83-.64-1.36-1.06-2.25-1.3-2.87a15,15,0,0,1-2.18-3,9.76,9.76,0,0,0-2.07-2.66,25.34,25.34,0,0,0-13.07-5.78A1.34,1.34,0,0,0,198.28,132.56Z"/></svg>