<svg id="Layer_1" data-name="Layer 1" xmlns="http://www.w3.org/2000/svg" viewBox="0 0 300 300"><defs><style>.cls-1{fill:#ff454a;}</style></defs><title>jambo-s</title><rect class="cls-1" x="155.22" y="145.4" width="3.3" height="31.86"/><rect class="cls-1" x="170.73" y="150.28" width="3.3" height="26.98"/><rect class="cls-1" x="189.11" y="157.33" width="3.3" height="19.93"/><path class="cls-1" d="M167.19,143.89a37.33,37.33,0,0,1-2.82,2.52c.21.05.42.11.63.17a11.13,11.13,0,0,1,6,4.65l.88,1.31,1.35-.82a12.49,12.49,0,0,1,3-1.35q1.65-1.77,3.12-3.69a13.56,13.56,0,0,0-6.49,1.49A14,14,0,0,0,167.19,143.89Z"/><path class="cls-1" d="M130.46,153.1v11.35c1.09.25,2.18.47,3.3.64V153.93C132.64,153.7,131.54,153.42,130.46,153.1Z"/><path class="cls-1" d="M158.52,143.21v-5q0-6.64,0-13.29a14.15,14.15,0,0,0-14.18-14.4h0a13.65,13.65,0,0,0-9.92,4.11,14.51,14.51,0,0,0-4,10.18v24.78a33.42,33.42,0,0,0,3.3.91V124.86a11.23,11.23,0,0,1,3-7.89,10.38,10.38,0,0,1,7.55-3.11h0A10.89,10.89,0,0,1,155.22,125q0,6.64,0,13.28v9.47l2.19-.77.75-.24a33.9,33.9,0,0,0,5.26-3.82A14.64,14.64,0,0,0,158.52,143.21Z"/><path class="cls-1" d="M210,169.66v-.76c-.09-8-6-14-13.65-14h-.12a21.31,21.31,0,0,0-4,.52l-.37.07a13.9,13.9,0,0,0-7.79-7.8c-.39-.16-.78-.29-1.17-.41-.69,1-1.41,1.93-2.16,2.85a11.33,11.33,0,0,1,2.11.62,10.76,10.76,0,0,1,6.38,7.11l.43,1.35,1.4-.22c.62-.1,1.22-.22,1.82-.33a18.57,18.57,0,0,1,3.34-.46v0h.09c5.94,0,10.29,4.5,10.36,10.73v.76c.08,6.69.16,13.6-.12,20.36a40.43,40.43,0,0,1-11.43,26.81,42.57,42.57,0,0,1-62.07.13c-7.3-7.77-14.69-15.72-21.83-23.4l-5.16-5.55A10.4,10.4,0,0,1,104.15,176a11.17,11.17,0,0,1,10-6.07q.47,0,.95,0a14.47,14.47,0,0,1,5.88,1.93q3.57,2,7.15,4l2,1.12.77.4,2.87,1.46V168.41q-1.66-.24-3.3-.58v5.56l-.77-.42q-3.57-2-7.14-4a17.67,17.67,0,0,0-7.21-2.34,14.49,14.49,0,0,0-14.14,7.84,13.76,13.76,0,0,0,2.47,15.81l5.16,5.55c7.15,7.68,14.54,15.63,21.84,23.41a44.17,44.17,0,0,0,31.14,14.35q1.22.06,2.41.06c13,0,24.16-4.88,33.31-14.53a43.65,43.65,0,0,0,12.33-28.94C210.16,183.35,210.07,176.39,210,169.66Z"/><path class="cls-1" d="M93.09,117.63a48,48,0,1,1,95.7,5.49l3.26.49a51.3,51.3,0,1,0-87.49,30l2-2.72A47.83,47.83,0,0,1,93.09,117.63Z"/><path class="cls-1" d="M133.75,165.08c-1.11-.17-2.21-.39-3.3-.64v3.38q1.63.35,3.3.58Z"/><path class="cls-1" d="M176.18,150.37a9.61,9.61,0,0,1,4.58-.22c.76-.92,1.47-1.88,2.16-2.85a13.49,13.49,0,0,0-3.63-.62Q177.83,148.61,176.18,150.37Z"/><path class="cls-1" d="M107.37,117.63a33.73,33.73,0,0,1,67.46,0c0,1.14-.06,2.26-.17,3.36l3.26.49a37,37,0,1,0-73.85-3.85,36.86,36.86,0,0,0,9,24.13l2-2.76A33.58,33.58,0,0,1,107.37,117.63Z"/><path class="cls-1" d="M130.46,149.64v3.46c1.08.32,2.18.61,3.3.83v-3.38A33.42,33.42,0,0,1,130.46,149.64Z"/><path class="cls-1" d="M166,143.45a13.14,13.14,0,0,0-2.59-.55,33.9,33.9,0,0,1-5.26,3.82,11.27,11.27,0,0,1,6.21-.31,37.33,37.33,0,0,0,2.82-2.52C166.81,143.73,166.42,143.58,166,143.45Z"/></svg>