<svg id="Layer_1" data-name="Layer 1" xmlns="http://www.w3.org/2000/svg" viewBox="0 0 300 300"><defs><style>.cls-1{fill:#ff454a;}</style></defs><title>jambo-s</title><path class="cls-1" d="M180,193.31l-.85-1c-7.77-8.74-17.64-13.78-27.08-13.83h-.17c-9.38,0-18.37,4.66-26.73,13.85l-.85.93L67.84,159.66l1.21-1.4c18.79-21.64,49.75-46.72,90.46-43.29a98.69,98.69,0,0,1,45.37,16c12.13,7.93,22.35,18.1,28.77,28.64l.81,1.33ZM72.6,158.9l51.16,30.46c8.74-9.25,18.21-13.93,28.16-13.93h.19c10,.06,20.3,5.12,28.51,13.93l49.55-29.44c-11.93-18.52-38.77-39.15-70.93-41.86C128.52,115.47,98.6,129.58,72.6,158.9Z"/><path class="cls-1" d="M151.27,224.06A12.74,12.74,0,1,1,164,211.32,12.75,12.75,0,0,1,151.27,224.06Zm0-22.39a9.65,9.65,0,1,0,9.65,9.65A9.66,9.66,0,0,0,151.27,201.67Z"/><rect class="cls-1" x="116.59" y="115.05" width="3.09" height="95.32" transform="translate(-72.12 97.63) rotate(-35.13)"/><rect class="cls-1" x="150.95" y="179.1" width="3.09" height="13.76"/><rect class="cls-1" x="150.95" y="153.77" width="3.09" height="13.76"/><rect class="cls-1" x="150.95" y="129.45" width="3.09" height="13.76"/><rect class="cls-1" x="150.95" y="102.44" width="3.09" height="13.76"/><path class="cls-1" d="M149.74,92.36c-.33-2.54-2.1-9.42-6.29-10.82l1-2.93c6.88,2.3,8.32,12.91,8.38,13.36Z"/><path class="cls-1" d="M126,82.61,123.5,80.8c3.69-5.11,11-5.9,15.68-3.7l-1.32,2.8C134.3,78.21,128.68,78.9,126,82.61Z"/><path class="cls-1" d="M121.12,101.52c-4.36-4.56-3.8-11.91-.78-16.09l2.51,1.81c-2.3,3.2-2.65,8.85.51,12.15Z"/><path class="cls-1" d="M152.8,92.35,149.74,92c.06-.45,1.49-11.06,8.38-13.36l1,2.93C154.89,82.94,153.13,89.82,152.8,92.35Z"/><path class="cls-1" d="M176.54,82.61c-2.68-3.71-8.29-4.39-11.86-2.71l-1.32-2.8c4.67-2.2,12-1.42,15.68,3.7Z"/><path class="cls-1" d="M181.42,101.52l-2.24-2.13c3.16-3.31,2.81-9,.51-12.15l2.51-1.81C185.21,89.62,185.77,97,181.42,101.52Z"/></svg>