<svg id="Layer_1" data-name="Layer 1" xmlns="http://www.w3.org/2000/svg" viewBox="0 0 300 300"><defs><style>.cls-1{fill:#ff454a;}</style></defs><title>jambo-s</title><path class="cls-1" d="M146.09,195.73l-12.6,0a13,13,0,0,1-8.51-3.17c-2-1.66-3.56-3.09-5-4.5a11.23,11.23,0,0,1-3.35-8.27c0-1.44,0-2.87,0-4.38V175h-2.93c-2.39,0-4.86,0-7.3,0a12,12,0,0,1-8.58-3.56q-5-5-10-10l-2.29-2.29c-2-2-2-3.78,0-5.8l2.08-2.08c1.58-1.57,3.2-3.19,4.77-4.81l0-.08a81.5,81.5,0,0,1,.47-28.61,3.55,3.55,0,0,0,0-1.19c-.28-1.73-.58-3.45-.89-5.24l0-.24-.2,0v.08c.27,1.47.52,2.87.68,4.32a14.27,14.27,0,0,1-.09,4,79.46,79.46,0,0,0-1.12,17.3,3.32,3.32,0,0,1-.08.84c0,.07,0,.14,0,.22l-.85,5.54-2.5-5C78,118.89,78,87.68,101.12,65.25A64.29,64.29,0,0,1,204,139l-2.76,5.66-.62-6.26c0-.14,0-.25,0-.35a4.49,4.49,0,0,1,0-.76,88.77,88.77,0,0,0-1.2-18.25,13.47,13.47,0,0,1,.15-4.23c.05-.36.1-.72.14-1.07.1-.84.24-1.64.4-2.47l-.15,0c-.11.62-.22,1.24-.34,1.84a17,17,0,0,0-.42,6.66,72.55,72.55,0,0,1,.31,25.9c-.13.79,0,1,.35,1.31,1.75,1.63,3.44,3.35,5.08,5l1.6,1.62c1.93,1.94,1.92,3.76,0,5.72l-5.24,5.24-6.77,6.77a12.22,12.22,0,0,1-8.8,3.68c-2.47,0-5,0-7.39,0h-3s0,.1,0,.14c0,1.36,0,2.65,0,3.94a12,12,0,0,1-4.44,10c-.67.56-1.31,1.15-2,1.77s-1.13,1-1.72,1.54a13.18,13.18,0,0,1-8.73,3.34Zm-29.25-24.3h3.37v4c0,1.5,0,2.93,0,4.36a7.69,7.69,0,0,0,2.29,5.74c1.36,1.34,2.88,2.71,4.79,4.31a9.51,9.51,0,0,0,6.23,2.34c8.51,0,16.88,0,24.88,0a9.71,9.71,0,0,0,6.42-2.48c.55-.47,1.09-1,1.63-1.46s1.39-1.27,2.13-1.89a8.48,8.48,0,0,0,3.16-7.15c0-1.34,0-2.65,0-4,0-.62,0-1.26,0-1.9v-1.78h6.53c2.41,0,4.9,0,7.34,0a8.65,8.65,0,0,0,6.32-2.64l6.78-6.78,5.24-5.24c.15-.15.26-.27.33-.36s-.16-.19-.3-.33l-1.61-1.63c-1.61-1.64-3.28-3.33-5-4.91a4.81,4.81,0,0,1-1.21-1.71c-.28,1.65-.56,3.24-.85,4.77a11.8,11.8,0,0,1-14.86,9.77l-2.51-.56c-2.86-.63-5.81-1.28-8.7-2.09a25.6,25.6,0,0,1-16-12.55,17.32,17.32,0,0,1-1.55-4.47c-.16-.64-.3-1.24-.48-1.81l-.52-1.72.88-.26c.49-5.73,3.64-10.15,9.36-13.16a26.52,26.52,0,0,1,20-2.31c1.18.33,2.37.64,3.56.95l2.4.63a13.83,13.83,0,0,1,10,9.44,65.65,65.65,0,0,0-1.24-14,20,20,0,0,1,.41-8c.23-1.17.44-2.28.55-3.41l.19-1.92,7.39,1.32-.31,1.75c-.08.46-.17.91-.25,1.35-.18.93-.34,1.8-.44,2.66,0,.39-.1.78-.16,1.17a10.56,10.56,0,0,0-.16,3.11,89.3,89.3,0,0,1,1.19,10.81,60.79,60.79,0,1,0-116.38-.52,87,87,0,0,1,1.13-9.79,10.68,10.68,0,0,0,.06-3c-.16-1.34-.4-2.68-.65-4.1-.11-.61-.22-1.23-.33-1.86l-.3-1.75,7.22-1.26.66,3.75c.32,1.8.62,3.54.9,5.29a7.09,7.09,0,0,1,0,2.42,79.47,79.47,0,0,0-1.44,16.23,13.18,13.18,0,0,1,8.22-9c4.75-1.61,9.07-3,13.74-3.2l.22,0,.11,0h.24c7.09.17,12.81,2.14,17.5,6,5.5,4.56,7.11,12.83,3.67,18.83a25.64,25.64,0,0,1-16.32,12.51c-2.62.68-5.29,1.29-7.88,1.88l-2.78.64a11.85,11.85,0,0,1-15.08-10c-.28-1.62-.56-3.23-.82-4.79a4,4,0,0,1-.84,1.37c-1.59,1.64-3.23,3.28-4.82,4.86L88,155.84c-.16.16-.27.28-.35.37.08.1.2.23.37.4l2.29,2.29q5,5,10,10a8.55,8.55,0,0,0,6.12,2.52c2.41,0,4.87,0,7.25,0Zm38.23-30,.11.43a14.45,14.45,0,0,0,1.19,3.57,22.15,22.15,0,0,0,13.81,10.86c2.79.78,5.7,1.42,8.51,2l2.53.56a8.26,8.26,0,0,0,10.57-6.95c.67-3.55,1.31-7.39,2-11.74A10.19,10.19,0,0,0,186,128.45l-2.37-.62c-1.21-.31-2.41-.63-3.62-1a23.07,23.07,0,0,0-17.41,2c-5,2.62-7.44,6.34-7.52,11.38ZM117.48,126l-.42,0c-4.22.22-8.29,1.49-12.79,3-4.15,1.4-6.92,6.23-6.19,10.77.53,3.25,1.23,7.55,2,11.91a8.31,8.31,0,0,0,10.76,7.13l2.79-.64c2.56-.59,5.21-1.19,7.78-1.86a22.19,22.19,0,0,0,14.12-10.84,11.59,11.59,0,0,0-2.85-14.31C128.6,127.81,123.77,126.16,117.48,126Zm28.78,57q-.44,0-.89,0a12.58,12.58,0,0,1-12-12.63v-.47c.25-6.25,1.5-10.77,4.05-14.66,1.29-2,3.45-4.65,7.29-5.23,3-.46,5.82.66,8.21,3.33a20.94,20.94,0,0,1,5,11.39,28.77,28.77,0,0,1,.32,7.51A12.29,12.29,0,0,1,146.26,183Zm-9.29-13v.35a9,9,0,0,0,8.68,9.09,8.77,8.77,0,0,0,9.08-7.64,25.6,25.6,0,0,0-.31-6.58,17.5,17.5,0,0,0-4.11-9.52c-1.59-1.77-3.18-2.46-5-2.18s-3.36,1.41-4.84,3.66C138.27,160.44,137.2,164.39,137,169.94Z"/><path class="cls-1" d="M145.26,232.74c-2.77,0-5.62,0-8.46-.07a17.45,17.45,0,0,1-13.94-6.86c-5.74-7.38-11.46-15-17-22.69A27.94,27.94,0,0,1,100.57,187c0-2.08,0-4.18,0-6.22,0-.92,0-1.85,0-2.77v-3.3l10,.87v7.88q0,3.74,0,7.47a12.18,12.18,0,0,0,3.58,8.85c3.64,3.68,7.41,7.2,10.3,9.85a14.48,14.48,0,0,0,10.08,3.85c6.61,0,13.63,0,22.77,0a14.69,14.69,0,0,0,10.11-3.82c3.27-2.95,7-6.29,10.47-9.7a12,12,0,0,0,3.74-8.88c0-3.23,0-6.46,0-9.71v-5.8l9.71-.84v1.94c0,1,0,1.92,0,2.88,0,2.28,0,4.65,0,7a32.89,32.89,0,0,1-.72,6.19,30.16,30.16,0,0,1-5.41,11.7c-2.53,3.32-5.07,6.72-7.52,10-2.68,3.59-5.46,7.31-8.23,10.93a17.89,17.89,0,0,1-14.67,7.34C151.83,232.71,148.61,232.74,145.26,232.74Zm-41.14-54.18q0,1.1,0,2.2c0,2,0,4.09,0,6.13A24.44,24.44,0,0,0,108.73,201c5.53,7.64,11.24,15.25,16.95,22.59a13.82,13.82,0,0,0,11.19,5.49c6.24.11,12.53.06,17.86,0a14.48,14.48,0,0,0,11.87-5.94c2.76-3.61,5.53-7.31,8.2-10.9,2.46-3.3,5-6.7,7.55-10a26.62,26.62,0,0,0,4.77-10.33,29.31,29.31,0,0,0,.64-5.52c.07-2.27.06-4.6,0-6.85q0-.48,0-1l-2.59.22v2.53c0,3.26,0,6.49,0,9.72a15.48,15.48,0,0,1-4.82,11.42c-3.54,3.46-7.28,6.83-10.57,9.8A18.16,18.16,0,0,1,157.32,217c-9.15,0-16.18,0-22.79,0A17.93,17.93,0,0,1,122,212.22c-2.91-2.68-6.73-6.24-10.42-10A15.63,15.63,0,0,1,107,190.9q0-3.74,0-7.48v-4.61Z"/><rect class="cls-1" x="101.82" y="187.93" width="33.01" height="3.56" transform="matrix(0.01, -1, 1, 0.01, -72.08, 306.92)"/><rect class="cls-1" x="156.71" y="188.17" width="33.45" height="3.56" transform="translate(-17.53 362.27) rotate(-89.66)"/><rect class="cls-1" x="144.18" y="193.95" width="3.56" height="21.3"/><rect class="cls-1" x="149.93" y="193.95" width="3.56" height="21.3"/><rect class="cls-1" x="156.22" y="193.95" width="3.56" height="21.3"/><rect class="cls-1" x="161.83" y="192.75" width="3.56" height="21.3"/><rect class="cls-1" x="167.44" y="188.08" width="3.56" height="22.32"/><path class="cls-1" d="M146,207.8l-.09-3.56c10.45-.26,17-2.85,20.6-5a16.89,16.89,0,0,0,5.39-4.56l3,1.9C174.64,197,168,207.26,146,207.8Z"/><rect class="cls-1" x="138.23" y="193.95" width="3.56" height="21.3"/><rect class="cls-1" x="131.94" y="193.95" width="3.56" height="21.3"/><rect class="cls-1" x="126.33" y="192.75" width="3.56" height="21.3"/><rect class="cls-1" x="120.72" y="188.08" width="3.56" height="22.32"/><path class="cls-1" d="M145.74,207.8c-22-.54-28.65-10.77-28.93-11.21l3-1.89c.05.08,6.07,9,26,9.53Z"/></svg>