<svg id="Layer_1" data-name="Layer 1" xmlns="http://www.w3.org/2000/svg" viewBox="0 0 300 300"><defs><style>.cls-1{fill:#ff454a;}</style></defs><title>jambo-s</title><path class="cls-1" d="M231,78.83h-64a3.17,3.17,0,0,1-3.17-3.17V50.33a3.17,3.17,0,0,1,3.17-3.17h64a3.17,3.17,0,0,1,3.17,3.17V75.66A3.17,3.17,0,0,1,231,78.83Zm-63.62-3.52h63.27V50.69H167.42Z"/><path class="cls-1" d="M71.92,161.76a7.1,7.1,0,0,1,0-14.21l72.73-.22a3.58,3.58,0,0,0,3.56-3.57V68.33a7.1,7.1,0,0,1,7.1-7.1h.17a7.13,7.13,0,0,1,7.1,7l1.19,85.37a7.1,7.1,0,0,1-7,7.2l-84.73,1Zm83.38-97a3.58,3.58,0,0,0-3.57,3.57v75.43a7.11,7.11,0,0,1-7.07,7.1l-72.73.22a3.58,3.58,0,0,0-2.5,6.13,3.47,3.47,0,0,0,2.55,1l84.73-1a3.57,3.57,0,0,0,3.53-3.62L159,68.28a3.59,3.59,0,0,0-3.57-3.52Z"/><path class="cls-1" d="M221.67,160.12H173.85V75.31h47.82Zm-44.3-3.52h40.78V78.83H177.37Z"/><path class="cls-1" d="M179.17,237H88.33V225.14A6.46,6.46,0,0,1,92.8,219c8.81-2.88,12.54-5.47,13.05-6.81.43-1.14-1.25-5.17-2.54-6.07-2-1.43-9.85-2.71-14.29-3.18l-.35,0-.31-.17a25.18,25.18,0,0,1-12.73-17.81l-1.47-8.39-5.05-.11-.5-.48a7.93,7.93,0,0,1,1.11-12.31l.44-.3h130.9a5.12,5.12,0,0,1,4.51,7.54l-25.83,48.07Zm-87.32-3.52h83.91l.49-15.44.2-.36,26-48.44a1.59,1.59,0,0,0-1.4-2.35H71.29a4.41,4.41,0,0,0-.65,6.07l6.5.14,2,11.25a21.67,21.67,0,0,0,10.65,15.16c2.31.26,12.35,1.5,15.58,3.76,2.23,1.56,5,7.2,3.81,10.21s-6.27,6-15.25,8.91a2.94,2.94,0,0,0-2,2.8Z"/><path class="cls-1" d="M197.29,107.54a8.37,8.37,0,1,1,8.37-8.37A8.38,8.38,0,0,1,197.29,107.54Zm0-13.21a4.84,4.84,0,1,0,4.84,4.84A4.85,4.85,0,0,0,197.29,94.33Z"/><rect class="cls-1" x="175.61" y="97.42" width="15.07" height="3.52"/></svg>