<svg id="Layer_1" data-name="Layer 1" xmlns="http://www.w3.org/2000/svg" viewBox="0 0 1223.23 275.09"><defs><style>.cls-1{fill:#fff;}</style></defs><title>jambo-s</title><rect class="cls-1" x="1003.59" y="41.9" width="179.26" height="5"/><rect class="cls-1" x="998.45" y="31.46" width="26.37" height="5" transform="translate(367.74 814.95) rotate(-52.42)"/><rect class="cls-1" x="1172.3" y="20.77" width="5" height="26.37" transform="translate(223.19 723.7) rotate(-37.59)"/><rect class="cls-1" x="1019.67" y="21.01" width="147.09" height="5"/><rect class="cls-1" x="1001.09" y="44.4" width="5" height="197.1"/><rect class="cls-1" x="1180.35" y="44.4" width="5" height="197.1"/><rect class="cls-1" x="1003.59" y="239" width="179.26" height="5"/><rect class="cls-1" x="1003.59" y="77.75" width="179.26" height="5"/><rect class="cls-1" x="1053.01" y="44.4" width="5" height="35.85"/><rect class="cls-1" x="1005.51" y="241.5" width="5" height="10.65"/><rect class="cls-1" x="1008.01" y="249.65" width="24.27" height="5"/><rect class="cls-1" x="1029.78" y="241.5" width="5" height="10.65"/><rect class="cls-1" x="1155.03" y="241.5" width="5" height="10.65"/><rect class="cls-1" x="1157.53" y="249.65" width="24.27" height="5"/><rect class="cls-1" x="1179.3" y="241.5" width="5" height="10.65"/><path class="cls-1" d="M1103.93,72.13a9.81,9.81,0,1,1,9.81-9.81A9.82,9.82,0,0,1,1103.93,72.13Zm0-14.61a4.81,4.81,0,1,0,4.81,4.81A4.81,4.81,0,0,0,1103.93,57.52Z"/><path class="cls-1" d="M1131.63,72.13a9.81,9.81,0,1,1,9.81-9.81A9.82,9.82,0,0,1,1131.63,72.13Zm0-14.61a4.81,4.81,0,1,0,4.81,4.81A4.81,4.81,0,0,0,1131.63,57.52Z"/><path class="cls-1" d="M1157.53,72.13a9.81,9.81,0,1,1,9.81-9.81A9.82,9.82,0,0,1,1157.53,72.13Zm0-14.61a4.81,4.81,0,1,0,4.81,4.81A4.81,4.81,0,0,0,1157.53,57.52Z"/><rect class="cls-1" x="1012.2" y="44.4" width="5" height="9.04"/><rect class="cls-1" x="1014.7" y="50.94" width="30.54" height="5"/><rect class="cls-1" x="1042.74" y="44.4" width="5" height="9.04"/><path class="cls-1" d="M1093.22,196.86a38,38,0,1,1,38-38A38,38,0,0,1,1093.22,196.86Zm0-70.92a33,33,0,1,0,33,33A33,33,0,0,0,1093.22,125.94Z"/><path class="cls-1" d="M1093.22,215.31a56.41,56.41,0,1,1,56.41-56.41A56.47,56.47,0,0,1,1093.22,215.31Zm0-107.82a51.41,51.41,0,1,0,51.41,51.41A51.47,51.47,0,0,0,1093.22,107.49Z"/><rect class="cls-1" x="1126.66" y="168.54" width="10.65" height="5"/><rect class="cls-1" x="1134.8" y="146.77" width="5" height="24.27"/><rect class="cls-1" x="1126.66" y="144.27" width="10.65" height="5"/></svg>