<svg id="Layer_1" data-name="Layer 1" xmlns="http://www.w3.org/2000/svg" viewBox="0 0 300 300"><defs><style>.cls-1{fill:#ff454a;}</style></defs><title>jambo-s</title><path class="cls-1" d="M100.84,113.57H93.21v-5.2h7.63Zm-6.63-1h5.63v-3.2H94.21Z"/><path class="cls-1" d="M205.77,113.57h-7.64v-5.2h7.64Zm-6.64-1h5.64v-3.2h-5.64Z"/><path class="cls-1" d="M239.23,124.16H61.76V113.89H239.23Zm-176.47-1H238.23v-8.26H78.18a4,4,0,1,1-2.25,0H62.76Zm14.29-7.43a3,3,0,1,0,3,3A3,3,0,0,0,77.06,115.73ZM223,123a4,4,0,1,1,4-4A4,4,0,0,1,223,123Zm0-7a3,3,0,1,0,3,3A3,3,0,0,0,223,116Z"/><path class="cls-1" d="M223,138.85a2.67,2.67,0,1,1,2.67-2.67A2.67,2.67,0,0,1,223,138.85Zm0-4.34a1.67,1.67,0,1,0,1.67,1.67A1.67,1.67,0,0,0,223,134.51Z"/><path class="cls-1" d="M100.84,130.73H93.21v-6.24h7.63Zm-6.63-1h5.63v-4.24H94.21Z"/><path class="cls-1" d="M197.81,130.73H101.17v-6.24h96.64Zm-95.64-1h94.64v-4.24H102.17Z"/><path class="cls-1" d="M223,121.7a2.67,2.67,0,1,1,2.67-2.67A2.67,2.67,0,0,1,223,121.7Zm0-4.34a1.67,1.67,0,1,0,1.67,1.67A1.67,1.67,0,0,0,223,117.36Z"/><path class="cls-1" d="M205.77,165.45h-7.64v-7.32h7.64Zm-6.64-1h5.64v-5.32h-5.64Z"/><path class="cls-1" d="M197.81,165.45H101.17v-7.32h96.64Zm-95.64-1h94.64v-5.32H102.17Z"/><path class="cls-1" d="M77.06,138.55a2.67,2.67,0,1,1,2.67-2.67A2.67,2.67,0,0,1,77.06,138.55Zm0-4.34a1.67,1.67,0,1,0,1.67,1.67A1.67,1.67,0,0,0,77.06,134.21Z"/><path class="cls-1" d="M205.77,147.21h-7.64v-5.57h7.64Zm-6.64-1h5.64v-3.57h-5.64Z"/><path class="cls-1" d="M205.77,130.73h-7.64v-6.24h7.64Zm-6.64-1h5.64v-4.24h-5.64Z"/><path class="cls-1" d="M197.81,147.21H101.17v-5.57h96.64Zm-95.64-1h94.64v-3.57H102.17Z"/><path class="cls-1" d="M77.06,121.4a2.67,2.67,0,1,1,2.67-2.67A2.67,2.67,0,0,1,77.06,121.4Zm0-4.34a1.67,1.67,0,1,0,1.67,1.67A1.67,1.67,0,0,0,77.06,117.06Z"/><path class="cls-1" d="M78.88,194.4H75.23V171.77h3.66Zm-2.66-1h1.66V172.77H76.23Z"/><path class="cls-1" d="M235.6,203.17h-3.66v-31.4h3.66Zm-2.66-1h1.66v-29.4h-1.66Z"/><path class="cls-1" d="M226.8,194.24h-3.66V171.77h3.66Zm-2.66-1h1.66V172.77h-1.66Z"/><path class="cls-1" d="M77.06,155a2.67,2.67,0,1,1,2.67-2.67A2.67,2.67,0,0,1,77.06,155Zm0-4.34a1.67,1.67,0,1,0,1.67,1.67A1.67,1.67,0,0,0,77.06,150.7Z"/><path class="cls-1" d="M239.23,157.8H61.76V147.54H239.23Zm-176.47-1H238.23v-8.26h-160a4,4,0,1,1-2.25,0H62.76Zm14.29-7.43a3,3,0,1,0,3,3A3,3,0,0,0,77.06,149.38ZM223,156.66a4,4,0,1,1,4-4A4,4,0,0,1,223,156.66Zm0-7a3,3,0,1,0,3,3A3,3,0,0,0,223,149.68Z"/><path class="cls-1" d="M70.08,203.33H66.43V171.77h3.66Zm-2.66-1h1.66V172.77H67.43Z"/><path class="cls-1" d="M100.84,165.45H93.21v-7.32h7.63Zm-6.63-1h5.63v-5.32H94.21Z"/><path class="cls-1" d="M239.23,141.32H61.76V131.05H239.23Zm-176.47-1H238.23v-8.26H78.18a4,4,0,1,1-2.25,0H62.76Zm14.29-7.43a3,3,0,1,0,3,3A3,3,0,0,0,77.06,132.89ZM223,140.18a4,4,0,1,1,4-4A4,4,0,0,1,223,140.18Zm0-7a3,3,0,1,0,3,3A3,3,0,0,0,223,133.19Z"/><path class="cls-1" d="M247,171.45H53.2v-5.68H247Zm-192.79-1H246v-3.68H54.2Z"/><path class="cls-1" d="M223,155.34a2.67,2.67,0,1,1,2.67-2.67A2.67,2.67,0,0,1,223,155.34Zm0-4.34a1.67,1.67,0,1,0,1.67,1.67A1.67,1.67,0,0,0,223,151Z"/><path class="cls-1" d="M100.84,147.21H93.21v-5.57h7.63Zm-6.63-1h5.63v-3.57H94.21Z"/><path class="cls-1" d="M77.06,115.23a3.49,3.49,0,1,0,3.49,3.49A3.5,3.5,0,0,0,77.06,115.23Zm0,5.66a2.17,2.17,0,1,1,2.17-2.17A2.17,2.17,0,0,1,77.06,120.9Z"/><path class="cls-1" d="M77.06,122.72a4,4,0,1,1,4-4A4,4,0,0,1,77.06,122.72Zm0-7a3,3,0,1,0,3,3A3,3,0,0,0,77.06,115.73Zm0,5.66a2.67,2.67,0,1,1,2.67-2.67A2.67,2.67,0,0,1,77.06,121.4Zm0-4.34a1.67,1.67,0,1,0,1.67,1.67A1.67,1.67,0,0,0,77.06,117.06Z"/><path class="cls-1" d="M223,122.52a3.49,3.49,0,1,0-3.49-3.49A3.5,3.5,0,0,0,223,122.52Zm0-5.66a2.17,2.17,0,1,1-2.17,2.17A2.17,2.17,0,0,1,223,116.86Z"/><path class="cls-1" d="M223,123a4,4,0,1,1,4-4A4,4,0,0,1,223,123Zm0-7a3,3,0,1,0,3,3A3,3,0,0,0,223,116Zm0,5.66a2.67,2.67,0,1,1,2.67-2.67A2.67,2.67,0,0,1,223,121.7Zm0-4.34a1.67,1.67,0,1,0,1.67,1.67A1.67,1.67,0,0,0,223,117.36Z"/><path class="cls-1" d="M77.06,132.39a3.49,3.49,0,1,0,3.49,3.49A3.5,3.5,0,0,0,77.06,132.39Zm0,5.66a2.17,2.17,0,1,1,2.17-2.17A2.17,2.17,0,0,1,77.06,138.05Z"/><path class="cls-1" d="M77.06,139.88a4,4,0,1,1,4-4A4,4,0,0,1,77.06,139.88Zm0-7a3,3,0,1,0,3,3A3,3,0,0,0,77.06,132.89Zm0,5.66a2.67,2.67,0,1,1,2.67-2.67A2.67,2.67,0,0,1,77.06,138.55Zm0-4.34a1.67,1.67,0,1,0,1.67,1.67A1.67,1.67,0,0,0,77.06,134.21Z"/><path class="cls-1" d="M223,139.68a3.49,3.49,0,1,0-3.49-3.49A3.5,3.5,0,0,0,223,139.68Zm0-5.66a2.17,2.17,0,1,1-2.17,2.17A2.17,2.17,0,0,1,223,134Z"/><path class="cls-1" d="M223,140.18a4,4,0,1,1,4-4A4,4,0,0,1,223,140.18Zm0-7a3,3,0,1,0,3,3A3,3,0,0,0,223,133.19Zm0,5.66a2.67,2.67,0,1,1,2.67-2.67A2.67,2.67,0,0,1,223,138.85Zm0-4.34a1.67,1.67,0,1,0,1.67,1.67A1.67,1.67,0,0,0,223,134.51Z"/><path class="cls-1" d="M77.06,148.88a3.49,3.49,0,1,0,3.49,3.49A3.5,3.5,0,0,0,77.06,148.88Zm0,5.66a2.17,2.17,0,1,1,2.17-2.17A2.17,2.17,0,0,1,77.06,154.54Z"/><path class="cls-1" d="M77.06,156.36a4,4,0,1,1,4-4A4,4,0,0,1,77.06,156.36Zm0-7a3,3,0,1,0,3,3A3,3,0,0,0,77.06,149.38Zm0,5.66a2.67,2.67,0,1,1,2.67-2.67A2.67,2.67,0,0,1,77.06,155Zm0-4.34a1.67,1.67,0,1,0,1.67,1.67A1.67,1.67,0,0,0,77.06,150.7Z"/><path class="cls-1" d="M223,156.16a3.49,3.49,0,1,0-3.49-3.49A3.5,3.5,0,0,0,223,156.16Zm0-5.66a2.17,2.17,0,1,1-2.17,2.17A2.17,2.17,0,0,1,223,150.5Z"/><path class="cls-1" d="M223,156.66a4,4,0,1,1,4-4A4,4,0,0,1,223,156.66Zm0-7a3,3,0,1,0,3,3A3,3,0,0,0,223,149.68Zm0,5.66a2.67,2.67,0,1,1,2.67-2.67A2.67,2.67,0,0,1,223,155.34Zm0-4.34a1.67,1.67,0,1,0,1.67,1.67A1.67,1.67,0,0,0,223,151Z"/><path class="cls-1" d="M206.59,164.95v-6.32h33.47V146.71H206.59v-4.57h33.47V130.23H206.59V125h33.47V113.07H206.59v-5.53h-9.28v5.53H101.67v-5.53H92.38v5.53H60.94V125H92.38v5.24H60.94v11.91H92.38v4.57H60.94v11.91H92.38v6.32h-40v7.33H65.6v31.88h5.3V172.27h3.5v23h5.3v-23H222.32v22.79h5.3V172.27h3.5V204h5.3V172.27h11.4v-7.33Zm-1.32,0h-6.64v-6.32h6.64Zm-103.6-6.32h95.64v6.32H101.67Zm103.6-11.91h-6.64v-4.57h6.64Zm-103.6-4.57h95.64v4.57H101.67Zm103.6-11.91h-6.64V125h6.64ZM101.67,125h95.64v5.24H101.67Zm97-16.11h6.64v4.2h-6.64Zm-104.92,0h6.63v4.2H93.71ZM62.26,123.66V114.4H238.73v9.26H62.26ZM93.71,125h6.63v5.24H93.71ZM62.26,140.82v-9.26H238.73v9.26H62.26Zm31.45,1.32h6.63v4.57H93.71ZM62.26,157.3V148H238.73v9.26H62.26Zm31.45,1.32h6.63v6.32H93.71ZM69.58,202.83H66.93V172.27h2.66Zm8.8-8.93H75.73V172.27h2.66Zm147.91-.16h-2.66V172.27h2.66Zm8.8,8.93h-2.66v-30.4h2.66Zm11.4-31.72H53.7v-4.68H246.49Z"/><path class="cls-1" d="M71.41,204.66H65.1V172.77H51.88v-8.33h40v-5.32H60.44V146.21H91.88v-3.57H60.44V129.73H91.88v-4.24H60.44V112.57H91.88V107h10.28v5.53h94.64V107h10.28v5.53h33.47v12.91H207.09v4.24h33.47v12.91H207.09v3.57h33.47v12.91H207.09v5.32h41.23v8.33h-11.4V204.5h-6.3V172.77h-2.5v22.79h-6.3V172.77H80.21v23H73.9v-23h-2.5Zm-5.3-1h4.3V171.77h4.5v23h4.3v-23H222.82v22.79h4.3V171.77h4.5V203.5h4.3V171.77h11.4v-6.33H206.09v-7.32h33.47V147.21H206.09v-5.57h33.47V130.73H206.09v-6.24h33.47V113.57H206.09V108h-8.28v5.53H101.17V108H92.88v5.53H61.44v10.91H92.88v6.24H61.44v10.91H92.88v5.57H61.44v10.91H92.88v7.32h-40v6.33H66.1Zm4-.32H66.43V171.77h3.66Zm-2.66-1h1.66V172.77H67.43Zm168.17.84h-3.66v-31.4h3.66Zm-2.66-1h1.66v-29.4h-1.66ZM78.88,194.4H75.23V171.77h3.66Zm-2.66-1h1.66V172.77H76.23Zm150.57.84h-3.66V171.77h3.66Zm-2.66-1h1.66V172.77h-1.66ZM247,171.45H53.2v-5.68H247Zm-192.79-1H246v-3.68H54.2Zm151.56-5h-7.64v-7.32h7.64Zm-6.64-1h5.64v-5.32h-5.64Zm-1.32,1H101.17v-7.32h96.64Zm-95.64-1h94.64v-5.32H102.17Zm-1.32,1H93.21v-7.32h7.63Zm-6.63-1h5.63v-5.32H94.21Zm145-6.64H61.76V147.54H239.23Zm-176.47-1H238.23v-8.26H62.76Zm143-9.59h-7.64v-5.57h7.64Zm-6.64-1h5.64v-3.57h-5.64Zm-1.32,1H101.17v-5.57h96.64Zm-95.64-1h94.64v-3.57H102.17Zm-1.32,1H93.21v-5.57h7.63Zm-6.63-1h5.63v-3.57H94.21Zm145-4.9H61.76V131.05H239.23Zm-176.47-1H238.23v-8.26H62.76Zm143-9.59h-7.64v-6.24h7.64Zm-6.64-1h5.64v-4.24h-5.64Zm-1.32,1H101.17v-6.24h96.64Zm-95.64-1h94.64v-4.24H102.17Zm-1.32,1H93.21v-6.24h7.63Zm-6.63-1h5.63v-4.24H94.21Zm145-5.57H61.76V113.89H239.23Zm-176.47-1H238.23v-8.26H62.76Zm143-9.59h-7.64v-5.2h7.64Zm-6.64-1h5.64v-3.2h-5.64Zm-98.29,1H93.21v-5.2h7.63Zm-6.63-1h5.63v-3.2H94.21Z"/></svg>