<svg id="Layer_1" data-name="Layer 1" xmlns="http://www.w3.org/2000/svg" viewBox="0 0 300 300"><defs><style>.cls-1{fill:#ff454a;}</style></defs><title>jambo-s</title><rect class="cls-1" x="78.25" y="77.37" width="135.72" height="3.79"/><rect class="cls-1" x="74.35" y="69.46" width="19.96" height="3.79" transform="translate(-23.65 94.67) rotate(-52.42)"/><rect class="cls-1" x="205.99" y="61.37" width="3.79" height="19.96" transform="translate(-0.37 141.63) rotate(-37.59)"/><rect class="cls-1" x="90.42" y="61.55" width="111.37" height="3.79"/><rect class="cls-1" x="76.35" y="79.26" width="3.79" height="149.23"/><rect class="cls-1" x="212.08" y="79.26" width="3.79" height="149.23"/><rect class="cls-1" x="78.25" y="226.6" width="135.72" height="3.79"/><rect class="cls-1" x="78.25" y="104.51" width="135.72" height="3.79"/><rect class="cls-1" x="115.67" y="79.26" width="3.79" height="27.14"/><rect class="cls-1" x="79.7" y="228.5" width="3.79" height="8.06"/><rect class="cls-1" x="81.6" y="234.66" width="18.37" height="3.79"/><rect class="cls-1" x="98.08" y="228.5" width="3.79" height="8.06"/><rect class="cls-1" x="192.91" y="228.5" width="3.79" height="8.06"/><rect class="cls-1" x="194.8" y="234.66" width="18.37" height="3.79"/><rect class="cls-1" x="211.29" y="228.5" width="3.79" height="8.06"/><path class="cls-1" d="M154.22,100.26a7.43,7.43,0,1,1,7.42-7.42A7.43,7.43,0,0,1,154.22,100.26Zm0-11.06a3.64,3.64,0,1,0,3.64,3.64A3.64,3.64,0,0,0,154.22,89.19Z"/><path class="cls-1" d="M175.19,100.26a7.43,7.43,0,1,1,7.42-7.42A7.43,7.43,0,0,1,175.19,100.26Zm0-11.06a3.64,3.64,0,1,0,3.64,3.64A3.64,3.64,0,0,0,175.19,89.19Z"/><path class="cls-1" d="M194.8,100.26a7.43,7.43,0,1,1,7.42-7.42A7.43,7.43,0,0,1,194.8,100.26Zm0-11.06a3.64,3.64,0,1,0,3.64,3.64A3.64,3.64,0,0,0,194.8,89.19Z"/><rect class="cls-1" x="84.77" y="79.26" width="3.79" height="6.85"/><rect class="cls-1" x="86.66" y="84.22" width="23.12" height="3.79"/><rect class="cls-1" x="107.89" y="79.26" width="3.79" height="6.85"/><path class="cls-1" d="M146.11,194.7A28.74,28.74,0,1,1,174.85,166,28.77,28.77,0,0,1,146.11,194.7Zm0-53.7a25,25,0,1,0,25,25A25,25,0,0,0,146.11,141Z"/><path class="cls-1" d="M146.11,208.66A42.71,42.71,0,1,1,188.82,166,42.76,42.76,0,0,1,146.11,208.66Zm0-81.63A38.92,38.92,0,1,0,185,166,39,39,0,0,0,146.11,127Z"/><rect class="cls-1" x="171.43" y="173.25" width="8.06" height="3.79"/><rect class="cls-1" x="177.6" y="156.77" width="3.79" height="18.37"/><rect class="cls-1" x="171.43" y="154.88" width="8.06" height="3.79"/></svg>