<?xml version="1.0" encoding="utf-8"?>
<!-- Generator: Adobe Illustrator 22.0.0, SVG Export Plug-In . SVG Version: 6.00 Build 0)  -->
<svg version="1.1" id="Layer_1" xmlns="http://www.w3.org/2000/svg" xmlns:xlink="http://www.w3.org/1999/xlink" x="0px" y="0px"
	 viewBox="0 0 686.7 248.4" style="enable-background:new 0 0 686.7 248.4;" xml:space="preserve">
<style type="text/css">
	.st0{fill:#FF00FF;}
	.st1{fill:#FFFFFF;}
	.st2{fill:#1B1464;}
	.st3{fill:#7F5A9C;}
	.st4{fill:none;}
	.st5{fill:#8B63AA;}
	.st6{fill:url(#SVGID_1_);}
	.st7{fill:url(#SVGID_2_);}
	.st8{fill:url(#SVGID_3_);}
	.st9{fill:url(#SVGID_4_);}
	.st10{fill:url(#SVGID_5_);}
	.st11{fill-rule:evenodd;clip-rule:evenodd;fill:#75528F;}
	.st12{fill-rule:evenodd;clip-rule:evenodd;fill:#8B63AA;}
	.st13{fill:none;stroke:#FCFAF7;stroke-miterlimit:10;}
	.st14{fill:#684880;}
	.st15{fill:url(#SVGID_6_);}
	.st16{fill:url(#SVGID_7_);}
	.st17{fill:url(#SVGID_8_);}
	.st18{fill:url(#SVGID_9_);}
	.st19{fill:url(#SVGID_10_);}
	.st20{fill:url(#SVGID_11_);}
	.st21{fill:url(#SVGID_12_);}
	.st22{fill:url(#SVGID_13_);}
	.st23{fill:url(#SVGID_14_);}
	.st24{fill:url(#SVGID_15_);}
	.st25{fill:url(#SVGID_16_);}
	.st26{fill:url(#SVGID_17_);}
	.st27{fill:url(#SVGID_18_);}
	.st28{fill:url(#SVGID_19_);}
	.st29{fill:url(#SVGID_20_);}
</style>
<path class="st5" d="M38.3,153.2H90v9.6H69.6v55.7H58.8v-55.7H38.3V153.2z"/>
<path class="st5" d="M113.4,181.6h-2.5c-6.1,0-11,4.6-11.2,11.2v25.7H89.1v-45.7h7l1.3,7.3h0.5c2.4-4.8,7-7.4,13.1-7.4h2.5V181.6z"
	/>
<path class="st5" d="M120.2,157.9c0-3.6,2.9-6.4,6.5-6.4c3.7,0,6.6,2.8,6.6,6.4c0,3.7-2.9,6.4-6.6,6.4
	C123.1,164.4,120.2,161.6,120.2,157.9z M121.4,172.7h10.7v45.7h-10.7V172.7z"/>
<path class="st5" d="M145.4,172.7h7l1.3,6.5h0.7c3.3-5,7.6-7.6,15.3-7.6c11.9,0,19,8.3,19,20.6v26.2H178v-25.2
	c0-7-3.9-12.4-10.9-12.4c-7.2,0-10.8,5.7-11.1,10.3v27.3h-10.7V172.7z"/>
<path class="st5" d="M243.1,172.7l-18.5,19.9l18.8,25.8h-13l-14.1-19.2l-4.5,4.8v14.4h-10.7v-65.8h10.7v39.7l18-19.6H243.1z"/>
<path class="st5" d="M286.6,214.3c0,0-5.2,5.4-16.8,5.4c-14.9,0-23.9-10.1-23.9-24c0-13.8,8.8-24,22.2-24c13.3,0,20.8,9.5,20.8,22.7
	c0,1-0.1,2.8-0.1,2.8h-32.4c0.7,9.3,6.1,13.8,14.1,13.8c7.7,0,12.3-4,12.3-4L286.6,214.3z M256.7,190.2h21.4
	c-0.8-6.6-4.4-10.2-10.3-10.2C262,179.9,257.9,183.3,256.7,190.2z"/>
<path class="st5" d="M301.9,172.7v-13.9h10.7v13.9h12.3v8.4h-12.3v23.2c0,3.9,1.8,6.1,5.8,6.1c2.9,0,5.7-1.7,5.7-1.7l3.2,7.5
	c-1.1,0.8-5.4,3.4-11,3.4c-10,0-14.3-6.1-14.3-15v-23.4h-8.2v-8.4H301.9z"/>
<path class="st5" d="M414.3,218.4h-10.8v-27.8h-33.1v27.8h-10.8v-65.3h10.8v28.4h33.1v-28.4h10.8V218.4z"/>
<path class="st5" d="M460.4,172.7h10.7v45.7h-7l-1.8-6.3h-0.4c-1.6,2.4-5.8,7.4-15,7.4c-11.9,0-18.7-8.3-18.7-20.6v-26.2h10.7V198
	c0,7.2,3.4,12.6,10.4,12.6c7.7,0,11.2-6.4,11.2-11.1V172.7z"/>
<path class="st5" d="M484.2,172.7h7l1.3,6.5h0.7c3.3-5,7.6-7.6,15.3-7.6c11.9,0,19,8.3,19,20.6v26.2h-10.7v-25.2
	c0-7-3.9-12.4-10.9-12.4c-7.2,0-10.8,5.7-11.1,10.3v27.3h-10.7V172.7z"/>
<path class="st5" d="M542.8,172.7v-13.9h10.7v13.9h12.3v8.4h-12.3v23.2c0,3.9,1.8,6.1,5.8,6.1c2.9,0,5.7-1.7,5.7-1.7l3.2,7.5
	c-1.1,0.8-5.4,3.4-11,3.4c-10,0-14.3-6.1-14.3-15v-23.4h-8.2v-8.4H542.8z"/>
<path class="st5" d="M613.3,214.3c0,0-5.2,5.4-16.8,5.4c-14.9,0-23.9-10.1-23.9-24c0-13.8,8.8-24,22.2-24c13.3,0,20.8,9.5,20.8,22.7
	c0,1-0.1,2.8-0.1,2.8h-32.4c0.7,9.3,6.1,13.8,14.1,13.8c7.7,0,12.3-4,12.3-4L613.3,214.3z M583.5,190.2h21.4
	c-0.8-6.6-4.4-10.2-10.3-10.2C588.7,179.9,584.7,183.3,583.5,190.2z"/>
<path class="st5" d="M649.8,181.6h-2.5c-6.1,0-11,4.6-11.2,11.2v25.7h-10.7v-45.7h7l1.3,7.3h0.5c2.4-4.8,7-7.4,13.1-7.4h2.5V181.6z"
	/>
<g>
	<g>
		<path id="XMLID_9_" class="st11" d="M291.5,52.4c1.6,4.5,0.9,11-1.7,15c-0.6,1-0.5,3,0.2,3.8c3,3.7,4.6,10,3.5,14.7
			c-0.2,1.1,0.5,2.9,1.5,3.5c4.1,2.4,7.7,7.8,8.3,12.6c0.2,1.1,1.5,2.6,2.6,2.8c4.7,0.9,9.9,4.7,12.1,9c0.5,0.9,2,1.7,3.1,1.7
			c0.1,0,0.2,0,0.3,0c0.8-0.1,1.5-0.2,2.4-0.2c4.3,0,9.2,1.8,12.1,4.5c0.5,0.4,1.4,0.7,2.3,0.7c0.6,0,1.1-0.1,1.5-0.3
			c2.3-1.3,5.5-2.1,8.7-2.1c2.3,0,4.5,0.4,6.3,1.2c0.3,0.1,0.6,0.2,1,0.2c1.1,0,2.2-0.4,2.7-1.1c3-3.5,8.6-6.1,13.3-6.1l0.5,0l0.1,0
			c1.1,0,2.7-1.1,3.1-2.1c1.7-4.5,6.4-9,10.9-10.4c1.1-0.3,2.3-1.9,2.3-3.1c0-4.8,2.9-10.6,6.7-13.6c0.9-0.7,1.5-2.6,1.1-3.7
			c-1.6-4.5-0.9-11,1.7-15c0.6-1,0.5-2.9-0.2-3.8c-3-3.7-4.6-10-3.5-14.7c0.2-1.1-0.5-2.9-1.5-3.5c-4.1-2.4-7.7-7.8-8.3-12.6
			c-0.2-1.1-1.5-2.6-2.6-2.8c-4.7-0.9-9.9-4.7-12.1-9c-0.5-0.9-2-1.7-3.1-1.7c-0.1,0-0.2,0-0.3,0c-0.7,0.1-1.5,0.2-2.4,0.2
			c-4.3,0-9.2-1.8-12.1-4.5c-0.5-0.4-1.4-0.7-2.3-0.7c-0.6,0-1.1,0.1-1.5,0.3c-2.3,1.3-5.5,2.1-8.7,2.1c-2.3,0-4.5-0.4-6.3-1.2
			c-0.3-0.1-0.6-0.2-1-0.2c-1.1,0-2.2,0.4-2.8,1.1c-3,3.5-8.6,6.1-13.3,6.1l-0.5,0l-0.1,0c-1.1,0-2.7,1.1-3.1,2.1
			c-1.7,4.5-6.4,9-10.9,10.4c-1.1,0.3-2.3,1.9-2.3,3.1c0,4.8-2.9,10.6-6.7,13.6C291.7,49.4,291.1,51.3,291.5,52.4L291.5,52.4z
			 M393.1,65.9c0,27.8-21.9,50.4-49,50.4c-27.1,0-49-22.6-49-50.4c0-27.8,21.9-50.4,49-50.4C371.1,15.5,393.1,38.1,393.1,65.9z"/>
		<path id="XMLID_3_" class="st12" d="M333.8,11.8c1.6,0.7,3.6,1,5.7,1c2.9,0,5.8-0.7,7.9-1.9c0.6-0.3,1.3-0.5,2.1-0.5
			c1.3,0,2.5,0.4,3.3,1.1c2.6,2.4,7.1,4.1,11,4.1c0.7,0,1.4-0.1,2.1-0.2c0.2,0,0.3,0,0.5,0c1.7,0,3.6,1.1,4.3,2.5
			c2,3.9,6.8,7.4,11,8.1c1.7,0.3,3.5,2.2,3.8,4c0.6,4.3,3.8,9.2,7.6,11.4c1.5,0.9,2.6,3.3,2.2,5c-0.9,4.3,0.5,10,3.2,13.4
			c1.1,1.3,1.3,4,0.3,5.5c-2.3,3.7-3,9.5-1.5,13.7c0.6,1.6-0.2,4.2-1.5,5.2c-3.4,2.7-6.1,7.9-6.1,12.3c0,1.7-1.6,3.9-3.2,4.4
			c-4.1,1.3-8.4,5.4-9.9,9.5c-0.6,1.6-2.7,3-4.4,3c0,0-0.1,0-0.1,0c-0.2,0-0.3,0-0.5,0c-4.3,0-9.4,2.3-12.1,5.5
			c-0.8,0.9-2.3,1.6-3.8,1.6c-0.5,0-1.1-0.1-1.5-0.3c-1.6-0.7-3.6-1-5.7-1c-2.9,0-5.8,0.7-7.9,1.9c-0.6,0.3-1.3,0.5-2.1,0.5
			c-1.3,0-2.5-0.4-3.3-1.1c-2.6-2.4-7.1-4.1-11-4.1c-0.7,0-1.5,0.1-2.1,0.2c-0.2,0-0.3,0-0.5,0c-1.7,0-3.6-1.1-4.3-2.5
			c-2-3.9-6.8-7.4-11-8.1c-1.7-0.3-3.5-2.2-3.8-4c-0.6-4.3-3.8-9.2-7.6-11.4c-1.5-0.9-2.5-3.3-2.2-5c0.9-4.3-0.5-10-3.2-13.4
			c-1.1-1.3-1.3-4-0.3-5.5c2.3-3.7,3-9.5,1.5-13.7c-0.6-1.6,0.2-4.2,1.5-5.2c3.4-2.6,6.1-7.9,6.1-12.3c0-1.7,1.6-3.9,3.2-4.4
			c4.1-1.3,8.4-5.4,9.9-9.5c0.6-1.6,2.7-3,4.4-3c0,0,0.1,0,0.1,0c0.2,0,0.3,0,0.5,0c4.3,0,9.4-2.3,12.1-5.5c0.8-0.9,2.3-1.6,3.8-1.6
			C332.9,11.5,333.4,11.6,333.8,11.8L333.8,11.8z M345.7,7.9c-2.8,1.6-7.6,1.9-10.6,0.7c-3-1.2-7.2-0.2-9.3,2.3
			c-2.1,2.5-6.5,4.4-9.7,4.3c-3.3-0.1-6.8,2.3-8,5.3c-1.1,3.1-4.6,6.4-7.7,7.4c-3.1,1-5.6,4.5-5.7,7.7c0,3.3-2.1,7.6-4.7,9.5
			c-2.6,2-3.8,6.1-2.7,9.2c1.1,3.1,0.6,7.8-1.2,10.6c-1.7,2.8-1.5,7.1,0.6,9.6c2.1,2.5,3.2,7.2,2.5,10.3c-0.7,3.2,1,7.1,3.8,8.8
			c2.8,1.6,5.4,5.6,5.9,8.9c0.4,3.2,3.4,6.4,6.6,6.9c3.2,0.6,7,3.4,8.5,6.3c1.5,2.9,5.4,4.8,8.6,4.3c3.2-0.5,7.8,0.8,10.2,3
			c2.4,2.2,6.7,2.7,9.5,1.1c2.8-1.6,7.6-1.9,10.6-0.7c3,1.2,7.2,0.2,9.3-2.3c2.1-2.5,6.5-4.4,9.7-4.3c3.3,0.1,6.8-2.3,8-5.3
			c1.1-3.1,4.6-6.4,7.7-7.3c3.1-1,5.6-4.5,5.7-7.7c0-3.3,2.1-7.6,4.7-9.5c2.6-2,3.8-6.1,2.7-9.2c-1.1-3.1-0.6-7.8,1.2-10.6
			c1.8-2.8,1.5-7.1-0.6-9.6c-2.1-2.5-3.2-7.2-2.5-10.4c0.7-3.2-1-7.1-3.8-8.8c-2.8-1.6-5.4-5.6-5.9-8.9c-0.4-3.2-3.4-6.4-6.6-6.9
			c-3.2-0.6-7-3.4-8.5-6.3c-1.5-2.9-5.4-4.8-8.6-4.3c-3.2,0.5-7.8-0.8-10.2-3C352.8,6.7,348.6,6.2,345.7,7.9z"/>
	</g>
	<path class="st5" d="M344.1,113.4c-26.2,0-47.5-21.3-47.5-47.5s21.3-47.5,47.5-47.5c26.2,0,47.5,21.3,47.5,47.5
		S370.3,113.4,344.1,113.4z M344.1,19.6c-25.5,0-46.3,20.8-46.3,46.3s20.8,46.3,46.3,46.3c25.5,0,46.3-20.8,46.3-46.3
		S369.6,19.6,344.1,19.6z"/>
</g>
<path class="st14" d="M351.7,62.4c-4.7,0.9-12.3,2.5-15,3c-0.2,2.3-0.3,4.7-0.5,6.9c2.9-0.5,9.9-1.7,14.1-2.4
	c0.3-1.5,0.6-3.1,0.8-4.5C351.3,64.4,351.5,63.4,351.7,62.4z"/>
<path class="st4" d="M370.7,48.7c0-2.9-1.7-4.9-4.6-3.4c-1.7,0.9-2.8,2.8-3.7,4.5c-1.2,3.7-2.2,7.4-3.1,11.2
	C363.2,58.9,370.7,52.7,370.7,48.7z"/>
<g>
	<path class="st5" d="M357.5,69.6c14.7-5.8,23.2-18,19-26.7c-1.9-4-6.2-5.8-10.5-5c-4.9,1-9.6,6.1-10.6,10.7
		c-1.5,4.5-2.7,9.2-3.7,13.8c-0.2,1-0.4,1.9-0.6,2.9c-0.3,1.4-0.6,3-0.8,4.5c-0.7,4.2-1.3,8.6-0.5,12.5c2,10.5,13.3,12.1,20.2,6.3
		c6.9-5.8-2.9-13.6-1.3-9.6c3.3,8-10.4,7.3-11.9,2.7c-1.1-3.3,0.1-7.6,0.5-10.9C357.4,70.4,357.4,70,357.5,69.6z M362.3,49.7
		c0.9-1.7,2-3.6,3.7-4.5c2.9-1.5,4.6,0.5,4.6,3.4c0,4.1-7.4,10.2-11.5,12.3C360.1,57.1,361.1,53.4,362.3,49.7z"/>
</g>
<path class="st5" d="M330.7,52.7C330.8,52.6,330.8,52.6,330.7,52.7c-0.3,4.5-0.5,9.1-0.9,13.7c-2.3,0.5-8.9,3.9-9.6,4.4c0,0,0,0,0,0
	c-0.2,0.1-0.5,0.3-0.7,0.5c-4.3,3.8-7.7,10-6.6,15.9c1.1,5.9,7.1,8.2,12.4,6.2c6.1-2.3,9.1-8.6,10.1-14.7c0.3-2,0.6-4.2,0.8-6.5
	c0.2-2.2,0.4-4.5,0.5-6.9c0.4-6,0.6-12.2,1-17C336.1,49.3,333.9,50.7,330.7,52.7z M328.2,78.7c-0.5,2.5-4.3,11.2-7.7,7.6
	c-2.5-2.5,1.1-7.3,3.5-9.6c2.8-2.2,4.3-2.5,5.1-3C328.9,75.4,328.6,77.1,328.2,78.7z"/>
<path class="st2" d="M329.8,53.3c0.2-0.1,0.7-0.5,0.9-0.6c0,0,0,0,0,0C330.4,52.9,330.1,53.1,329.8,53.3z"/>
<linearGradient id="SVGID_1_" gradientUnits="userSpaceOnUse" x1="253.6226" y1="50.4405" x2="298.7801" y2="50.4405" gradientTransform="matrix(0.9986 -5.244773e-02 5.244773e-02 0.9986 50.4594 14.107)">
	<stop  offset="0" style="stop-color:#6F4E88"/>
	<stop  offset="5.024600e-02" style="stop-color:#7A5695"/>
	<stop  offset="0.1263" style="stop-color:#845EA1"/>
	<stop  offset="0.2318" style="stop-color:#8962A8"/>
	<stop  offset="0.5075" style="stop-color:#8B63AA"/>
	<stop  offset="0.7352" style="stop-color:#8962A8"/>
	<stop  offset="0.8602" style="stop-color:#825DA0"/>
	<stop  offset="0.9599" style="stop-color:#775492"/>
	<stop  offset="1" style="stop-color:#704F8A"/>
</linearGradient>
<path class="st6" d="M337.7,48.4c2.1-1.1,7.4-3.5,9.4-2.7c2,0.8,3.8,2.8,4,3c0,0,0.1,0.1,0.1,0.1c0.1,0,0.1,0,0.1-0.2
	c0-0.1,0-0.2,0-0.3c0-0.1,0-0.2,0-0.4c0-0.2,0-0.3-0.1-0.5c-0.2-1.3-0.6-2.4-1.1-3.4c-0.2-0.3-0.3-0.6-0.5-0.9
	c-0.8-1.1-1.8-1.8-2.9-2.3c-1.2-0.5-2.6-0.7-3.9-0.8c-2.4,0-4.9,0.6-6.9,1.5c-3.6,1.5-6.8,3.7-10,5.8c-1.7,1.1-3.4,2.2-5.2,3.3
	c-1.6,0.9-2.7,1.7-4,2.5c-0.3,0.2-0.6,0.3-0.9,0.4c-0.4,0.2-0.9,0.3-1.4,0.4c-0.2,0-0.3,0-0.5,0.1c-0.2,0-0.3,0-0.5,0
	c-0.5,0-0.9-0.1-1.2-0.2c-0.3-0.1-0.6-0.2-0.9-0.3c-0.4-0.2-0.6-0.4-0.8-0.7c-0.1-0.1-0.1-0.2-0.2-0.4c-0.1-0.2-0.1-0.4-0.1-0.6
	c0-0.2,0-0.4,0-0.7c0-0.2,0.1-0.5,0.1-0.7c0.1-0.2,0.1-0.5,0.2-0.7c0.2-0.4,0.3-0.9,0.5-1.2c0.3-0.6,0.4-1.1,0.2-1.1
	c0,0-0.1,0-0.1,0c0,0-0.1,0-0.2,0c-0.2,0.1-0.5,0.2-0.9,0.5c-0.3,0.2-0.7,0.5-1,0.7c-0.3,0.3-0.6,0.6-0.9,0.9
	c-0.4,0.5-0.8,1-1.1,1.5c-0.2,0.3-0.4,0.7-0.5,1.1c-0.1,0.4-0.2,0.7-0.3,1.1c-0.1,0.4-0.1,0.8,0,1.1c0,0.4,0.1,0.8,0.2,1.1
	c0.1,0.2,0.1,0.4,0.2,0.6c1.8,3.8,6.3,4.3,9.9,3.5c4.7-1,8.9-3.7,12.9-6.4c0.3-0.2,0.6-0.4,0.9-0.6
	C333.9,50.7,336.1,49.3,337.7,48.4z"/>
<path class="st2" d="M330.7,52.7C330.7,52.7,330.7,52.7,330.7,52.7C330.8,52.6,330.8,52.6,330.7,52.7z"/>
<linearGradient id="SVGID_2_" gradientUnits="userSpaceOnUse" x1="265.3188" y1="82.028" x2="271.4501" y2="65.1824" gradientTransform="matrix(0.9986 -5.244773e-02 5.244773e-02 0.9986 50.4594 14.107)">
	<stop  offset="0" style="stop-color:#8B63AA"/>
	<stop  offset="0.2732" style="stop-color:#8760A5"/>
	<stop  offset="0.6089" style="stop-color:#7A5696"/>
	<stop  offset="0.9761" style="stop-color:#66467D"/>
	<stop  offset="1" style="stop-color:#64457B"/>
</linearGradient>
<path class="st7" d="M324,76.8c2.8-2.2,4.3-2.5,5.1-3l0.8-7.3c-2.3,0.5-8.1,3.5-9.6,4.4c0,0,0,0,0,0c-0.2,0.1-0.5,0.3-0.7,0.5
	c-2.6,2.3-4.8,5.4-6,8.8l7.9-0.4C322.2,78.6,323.2,77.6,324,76.8z"/>
<linearGradient id="SVGID_3_" gradientUnits="userSpaceOnUse" x1="281.0023" y1="60.7279" x2="281.0023" y2="49.4212" gradientTransform="matrix(0.9986 -5.244773e-02 5.244773e-02 0.9986 50.4594 14.107)">
	<stop  offset="0" style="stop-color:#8B63AA"/>
	<stop  offset="1" style="stop-color:#7F5A9C"/>
</linearGradient>
<path class="st8" d="M337.7,48.5c-1.6,0.9-3.9,2.2-7,4.2c0.1-0.1,0.1,0,0,0c-0.2,2.5-0.3,5-0.5,7.5l6.8-0.4
	C337.2,55.8,337.4,51.8,337.7,48.5z"/>
<linearGradient id="SVGID_4_" gradientUnits="userSpaceOnUse" x1="321.3937" y1="63.8067" x2="303.7513" y2="63.8067" gradientTransform="matrix(0.9986 -5.244773e-02 5.244773e-02 0.9986 50.4594 14.107)">
	<stop  offset="0" style="stop-color:#8B63AA"/>
	<stop  offset="0.3026" style="stop-color:#8760A6"/>
	<stop  offset="0.6219" style="stop-color:#7D5899"/>
	<stop  offset="0.9479" style="stop-color:#6B4B84"/>
	<stop  offset="1" style="stop-color:#684880"/>
</linearGradient>
<path class="st9" d="M359.2,60.9l-1.7,8.7c7.7-3,13.6-7.8,17-12.9l-6.3-3C365.7,56.7,361.8,59.6,359.2,60.9z"/>
<linearGradient id="SVGID_5_" gradientUnits="userSpaceOnUse" x1="307.2505" y1="87.2595" x2="317.8945" y2="87.2595" gradientTransform="matrix(0.9986 -5.244773e-02 5.244773e-02 0.9986 50.4594 14.107)">
	<stop  offset="0" style="stop-color:#8B63AA"/>
	<stop  offset="0.4013" style="stop-color:#8961A7"/>
	<stop  offset="0.6609" style="stop-color:#815C9F"/>
	<stop  offset="0.8797" style="stop-color:#755290"/>
	<stop  offset="1" style="stop-color:#6B4B84"/>
</linearGradient>
<path class="st10" d="M369.9,88.7c6.9-5.8-2.9-13.6-1.3-9.6c1.8,4.4-1.5,6.1-5.1,6.1l-1.3,6.8C364.9,91.7,367.7,90.6,369.9,88.7z"/>
</svg>
