<svg id="Layer_1" data-name="Layer 1" xmlns="http://www.w3.org/2000/svg" viewBox="0 0 333.12 87.12"><defs><style>.cls-1{fill:#414042;}.cls-2{fill:#ff454a;}.cls-3{fill:#fff;}.cls-4{fill:none;}</style></defs><title>FlatPig</title><path class="cls-1" d="M113.61,42.68H92.38v21.4H79.76V11.88H118V22.76H92.38v10h21.23Z"/><path class="cls-1" d="M124.33,11.45h12.53V64.09H124.33Z"/><path class="cls-1" d="M178.2,64.09h-8.53l-1.74-4.44h-.35C165.75,62.78,162.19,65,156.1,65,147.92,65,143,60.08,143,53.47c0-7.65,5.48-12.09,16.62-12.09a25.64,25.64,0,0,1,6.52.78V41c0-3.57-3-4.61-7.92-4.61a19.8,19.8,0,0,0-9.14,2.44L145.31,30s5.31-3.31,15.66-3.31c11,0,17.23,6,17.23,14.88Zm-12-15.57a12.87,12.87,0,0,0-5-.78c-4.09,0-6.52,1.74-6.52,4.7,0,2.7,2.17,4.35,5,4.35,3.48,0,6.44-2.17,6.44-5.57Z"/><path class="cls-1" d="M188.92,27.54V16.41h12.53V27.54h0a8.18,8.18,0,0,1,8.18,8.18V37.2h-8.18V51c0,2,1,3.22,3.3,3.22a5.92,5.92,0,0,0,3.22-1l3.39,8.53A17.87,17.87,0,0,1,201.28,65c-9,0-12.36-5.75-12.36-13.31V37.2h-6V27.54Z"/><path class="cls-1" d="M260.89,29.46c0,10.7-8.09,17.49-20.1,17.49H230.35V64.09H217.73V11.88h23.06C252.71,11.88,260.89,19.28,260.89,29.46Zm-21-6.7h-9.57V36.24H240c4.44,0,7.83-2.35,7.83-6.79S244.53,22.76,239.92,22.76Z"/><path class="cls-1" d="M265.79,16.06a6.77,6.77,0,0,1,7-6.88,6.91,6.91,0,0,1,7.22,6.88c0,4-3.22,6.78-7.22,6.78A6.7,6.7,0,0,1,265.79,16.06Zm.7,11.48H279V64.09H266.48Z"/><rect class="cls-2" x="9.8" y="11.88" width="52.22" height="52.22" rx="3" ry="3"/><path class="cls-3" d="M35.86,37.94c-4,0-7.2,2.45-7.2,5.47s3.23,5.47,7.2,5.47,7.2-2.45,7.2-5.47S39.84,37.94,35.86,37.94Zm0,9.74c-3.31,0-6-1.92-6-4.27s2.7-4.27,6-4.27,6,1.92,6,4.27S39.18,47.69,35.86,47.69Z"/><path class="cls-3" d="M39.38,34.93A1.93,1.93,0,1,0,37.45,33,1.93,1.93,0,0,0,39.38,34.93Zm0-2.67a.74.74,0,1,1-.74.74A.74.74,0,0,1,39.38,32.26Z"/><path class="cls-3" d="M32.09,34.93A1.93,1.93,0,1,0,30.16,33,1.93,1.93,0,0,0,32.09,34.93Zm0-2.67a.74.74,0,1,1-.74.74A.74.74,0,0,1,32.09,32.26Z"/><path class="cls-3" d="M37.5,40.8a1.53,1.53,0,0,0-.9,1.27,3.6,3.6,0,0,0,1.18,3.08,1.71,1.71,0,0,0,1.07.42,1.25,1.25,0,0,0,.45-.08,1.53,1.53,0,0,0,.9-1.27A3.37,3.37,0,0,0,40,42.54C39.46,41.2,38.4,40.45,37.5,40.8ZM39,44c0,.22-.11.32-.15.34s-.16,0-.33-.15a2.43,2.43,0,0,1-.76-2c0-.22.11-.32.15-.34h0c.16,0,.62.3.91,1.06A2.2,2.2,0,0,1,39,44Z"/><path class="cls-3" d="M34.33,40.8c-.9-.35-2,.4-2.48,1.74a3.37,3.37,0,0,0-.22,1.69,1.53,1.53,0,0,0,.9,1.27,1.25,1.25,0,0,0,.45.08A1.71,1.71,0,0,0,34,45.15a3.6,3.6,0,0,0,1.18-3.08A1.53,1.53,0,0,0,34.33,40.8Zm-.43,2.52a2.2,2.2,0,0,1-.6.9c-.18.14-.3.16-.33.15s-.11-.12-.15-.34A2.2,2.2,0,0,1,33,43c.31-.81.82-1.1.94-1.05s.11.11.15.34A2.2,2.2,0,0,1,33.9,43.32Z"/><path class="cls-3" d="M50.85,30.15l1.52-4.92a1.19,1.19,0,0,0-.21-1.1,1.21,1.21,0,0,0-1-.44l-4.48.37a2.39,2.39,0,0,0-1.53.73L43,27a13.1,13.1,0,0,0-7.11-1.88A13.55,13.55,0,0,0,28.81,27l-2.1-2.21a2.39,2.39,0,0,0-1.53-.73l-4.48-.37a1.19,1.19,0,0,0-1.24,1.54L21,30.15a1.78,1.78,0,0,0,1.44,1.24,12.46,12.46,0,0,1,3.42.92,9.52,9.52,0,0,1-1.2,3.63,5.73,5.73,0,0,1-.66.75c-1.2,1.24-3.22,3.31-3.22,9.13,0,2.71,1.77,4.94,5.13,6.46a25.17,25.17,0,0,0,10,1.91h0a25.42,25.42,0,0,0,9.71-1.91C49.11,50.74,51,48.51,51,45.83c0-5.82-2-7.89-3.22-9.13a5.73,5.73,0,0,1-.66-.75,9.4,9.4,0,0,1-1.19-3.58,11.75,11.75,0,0,1,3.51-1A1.78,1.78,0,0,0,50.85,30.15ZM22.12,29.8,20.6,24.88l4.48.37a1.19,1.19,0,0,1,.77.37l2,2.12a6.67,6.67,0,0,0-.92,1,6.05,6.05,0,0,0-.89,2.33,15.43,15.43,0,0,0-3.46-.89A.59.59,0,0,1,22.12,29.8ZM46.9,37.53c1.15,1.18,2.88,3,2.88,8.3,0,2.74-2.54,4.43-4.68,5.37A24.17,24.17,0,0,1,35.87,53h0a24,24,0,0,1-9.48-1.8c-2-.91-4.43-2.59-4.43-5.37,0-5.33,1.73-7.12,2.88-8.3a6.44,6.44,0,0,0,.81-.94A11.07,11.07,0,0,0,27,32.32a7.18,7.18,0,0,1,.88-2.85c2.16-3,7-3.13,7.95-3.11,1.33,0,5.83.17,7.93,3.11a7.18,7.18,0,0,1,.88,2.85,11.07,11.07,0,0,0,1.41,4.28A6.44,6.44,0,0,0,46.9,37.53Zm-1.22-6.39a6.12,6.12,0,0,0-.9-2.37,6.8,6.8,0,0,0-.86-1L46,25.62a1.19,1.19,0,0,1,.77-.37l4.48-.37L49.71,29.8a.59.59,0,0,1-.48.41A15,15,0,0,0,45.68,31.14Z"/><path class="cls-4" d="M303.21,44.33a4.63,4.63,0,0,0,5-4.87,4.87,4.87,0,1,0-9.74,0A4.59,4.59,0,0,0,303.21,44.33Z"/><path class="cls-1" d="M303.9,55.91c-6.7-.26-7.31-1.13-7.31-2.26,0-.87.26-1.39,1.57-2.17a30.18,30.18,0,0,0,5,.44c11,0,16.18-5.39,16.18-11.57,0-2.61-.69-3.39-.69-3.39v-.17h4.44a9.22,9.22,0,0,0-9.22-9.22h-4.79a24.48,24.48,0,0,0-5.92-.7c-9.83,0-16.27,5.13-16.27,12.88a10.47,10.47,0,0,0,4.18,8.53c-3.74,2.17-5.31,4.7-5.31,7.13A7.72,7.72,0,0,0,290,62.6a54.06,54.06,0,0,0,9,2.44c1.48.17,3.13.26,5,.35,6.18.18,7,1.57,7,3.48s-2.26,3.3-7.4,3.3c-5,0-6.79-1.3-6.79-3.3,0-.75.39-2,2.35-3.09,0,0-8-1.39-9.92-2.56-.55-.35-3.87,2.26-4.35,7.3-.51,5.46,5.22,9.22,18.71,9.22s19.75-6,19.75-12.7C323.31,59.47,318.43,56.52,303.9,55.91Zm-.69-21.32a4.63,4.63,0,0,1,5,4.87,4.87,4.87,0,0,1-9.74,0A4.59,4.59,0,0,1,303.21,34.59Z"/></svg>